<svg xmlns="http://www.w3.org/2000/svg" xmlns:xlink="http://www.w3.org/1999/xlink" version="1.1" style="enable-background:new 0 0 32 32;" xml:space="preserve" width="65" height="60"><rect id="backgroundrect" width="100%" height="100%" x="0" y="0" fill="none" stroke="none" class="" style=""/>


<g class="currentLayer" style=""><title>Layer 1</title><g id="Accept" class="selected" fill-opacity="1" fill="#abc5d0">
	<path id="Bestätigung_3_" d="M63.03422096609279,14.287980439880153 l-8.387043356895447,-8.533739042282106 c-0.5591362237930299,-0.5818458437919618 -1.3046511888504029,-0.5818458437919618 -1.863787412643435,0 L25.944851454488486,33.68284189961221 c-0.5591362237930299,0.5818458437919618 -1.3046511888504029,0.5818458437919618 -1.863787412643435,0 l-10.064452028274538,-10.473225188255311 c-0.5591362237930299,-0.5818458437919618 -1.3046511888504029,-0.5818458437919618 -1.863787412643435,0 l-8.387043356895447,8.727687656879425 c-0.5591362237930299,0.5818458437919618 -0.5591362237930299,1.357640302181244 0,1.9394861459732038 l10.064452028274538,10.473225188255311 c0.5591362237930299,0.5818458437919618 1.3046511888504029,1.357640302181244 1.863787412643435,1.9394861459732038 l8.387043356895447,8.727687656879425 c0.5591362237930299,0.5818458437919618 1.3046511888504029,0.5818458437919618 1.863787412643435,0 L63.03422096609279,16.22746658585336 C63.59335718988582,15.645620742061396 63.59335718988582,14.869826283672113 63.03422096609279,14.287980439880153 z" fill="#abc5d0"/>
</g><g id="Ebene_1_1_">
</g></g></svg>