<svg id="svg" version="1.1" xmlns="http://www.w3.org/2000/svg" xmlns:xlink="http://www.w3.org/1999/xlink" width="400" height="226.92633361558" viewBox="0, 0, 400,226.92633361558"><g id="svgg"><path id="path0" d="M0.014 9.932 L 0.028 19.864 0.554 17.934 C 2.884 9.391,9.412 2.751,17.633 0.561 L 19.637 0.028 9.818 0.014 L 0.000 0.000 0.014 9.932 M382.520 0.543 C 390.936 2.789,397.388 9.342,399.643 17.934 C 399.943 19.080,399.971 18.391,399.985 9.591 L 400.000 0.000 390.295 0.014 L 380.590 0.028 382.520 0.543 M20.620 3.520 C 20.557 3.583,19.923 3.742,19.211 3.873 C 11.906 5.224,5.248 12.207,3.750 20.091 C 3.141 23.297,3.236 204.577,3.849 207.443 C 4.292 209.514,5.203 212.092,5.873 213.167 C 9.322 218.698,13.580 221.858,19.485 223.267 C 20.760 223.571,41.065 223.610,200.075 223.610 C 390.442 223.611,380.492 223.660,382.860 222.703 C 390.235 219.725,394.560 214.823,396.335 207.431 C 396.792 205.530,396.699 21.366,396.240 19.367 C 394.358 11.163,388.733 5.658,380.190 3.658 C 379.096 3.402,20.875 3.264,20.620 3.520 M144.949 16.400 C 145.323 16.618,145.714 16.797,145.817 16.798 C 146.799 16.805,149.453 19.653,150.368 21.680 C 150.706 22.429,151.106 23.246,151.257 23.496 C 151.704 24.234,151.776 87.738,151.333 89.960 C 150.158 95.851,147.770 100.278,143.222 104.994 C 139.579 108.773,139.571 108.816,142.054 111.371 C 144.388 113.772,145.062 114.552,145.062 114.849 C 145.062 114.985,145.151 115.096,145.259 115.096 C 145.531 115.096,147.585 118.508,148.470 120.431 C 148.873 121.305,149.394 122.413,149.629 122.893 C 149.865 123.373,150.002 123.854,149.936 123.962 C 149.869 124.070,149.908 124.342,150.023 124.565 C 150.579 125.651,150.770 126.173,150.719 126.467 C 150.643 126.906,150.972 128.080,151.280 128.468 C 151.641 128.924,151.774 202.685,151.417 204.767 C 150.605 209.507,146.939 212.709,141.544 213.391 C 137.670 213.881,23.828 213.603,22.146 213.100 C 18.190 211.915,15.322 208.759,14.471 204.654 C 14.048 202.615,14.059 27.424,14.482 24.981 C 15.326 20.106,18.795 16.782,23.723 16.127 C 26.884 15.708,144.212 15.972,144.949 16.400 M379.155 16.765 C 381.117 17.750,382.928 19.557,383.906 21.507 L 384.677 23.042 384.635 56.195 C 384.589 93.011,384.661 91.211,383.078 95.460 C 382.752 96.334,382.430 97.279,382.363 97.560 C 382.295 97.841,382.158 98.070,382.057 98.070 C 381.957 98.070,381.808 98.377,381.725 98.751 C 381.643 99.126,381.501 99.432,381.410 99.432 C 381.320 99.432,381.064 99.844,380.842 100.347 C 380.620 100.849,379.809 102.085,379.039 103.093 C 376.231 106.768,375.848 107.605,376.974 107.605 C 377.281 107.605,377.709 107.695,377.926 107.804 C 378.143 107.914,378.729 108.179,379.228 108.394 C 381.363 109.312,383.423 111.553,384.275 113.885 C 384.654 114.921,384.677 117.493,384.677 159.364 L 384.677 203.746 384.111 205.278 C 383.800 206.121,383.468 206.810,383.373 206.810 C 383.278 206.810,383.201 207.051,383.201 207.344 C 383.201 209.227,379.252 212.714,376.244 213.489 C 373.905 214.091,320.709 214.028,318.757 213.420 C 315.355 212.361,313.336 210.197,312.625 206.846 C 312.443 205.987,312.335 195.872,312.256 172.226 C 312.127 133.790,312.095 132.084,311.455 129.398 C 310.374 124.865,308.941 121.966,306.351 119.069 C 306.016 118.695,305.574 118.179,305.368 117.924 C 303.165 115.190,296.367 112.840,290.634 112.831 C 278.713 112.811,269.278 119.277,266.127 129.625 C 265.037 133.208,265.089 131.448,264.946 169.580 L 264.813 205.335 264.065 206.810 C 259.606 215.611,249.945 215.869,247.069 207.264 C 246.473 205.480,246.294 28.745,246.885 25.318 C 247.705 20.567,250.710 17.595,256.186 16.119 C 256.561 16.018,284.041 15.951,317.253 15.970 L 377.639 16.005 379.155 16.765 M103.632 24.398 C 103.507 24.437,102.588 24.647,101.589 24.865 C 90.282 27.331,79.876 38.969,79.913 49.107 C 79.920 51.186,80.450 50.994,80.803 48.785 C 82.915 35.566,93.927 25.426,106.171 25.426 C 107.860 25.426,108.083 25.379,108.018 25.038 C 107.908 24.467,104.838 24.019,103.632 24.398 M349.204 25.803 C 348.734 25.993,349.129 26.334,349.818 26.334 C 350.172 26.334,351.417 26.531,352.586 26.772 C 364.041 29.133,372.703 38.338,374.472 50.034 C 374.867 52.642,375.256 53.100,375.254 50.953 C 375.246 42.787,368.350 32.684,359.860 28.398 C 356.187 26.544,350.689 25.205,349.204 25.803 M106.697 31.692 C 97.462 33.326,90.921 38.032,87.707 45.354 C 87.394 46.068,87.042 46.856,86.926 47.106 C 86.526 47.964,86.006 50.059,85.807 51.610 C 85.697 52.464,85.492 53.690,85.351 54.334 C 84.745 57.096,85.352 83.275,86.028 83.500 C 86.159 83.544,86.266 83.852,86.267 84.185 C 86.268 84.518,86.421 85.083,86.608 85.440 C 86.794 85.798,86.947 86.207,86.948 86.348 C 86.955 88.100,90.969 93.343,94.167 95.778 C 97.532 98.342,100.661 99.640,105.789 100.599 C 107.334 100.888,115.401 100.718,116.345 100.377 C 116.720 100.241,117.792 99.901,118.729 99.621 C 120.190 99.184,124.047 97.422,124.745 96.873 C 124.869 96.775,125.533 96.284,126.220 95.783 C 128.907 93.820,132.577 89.668,132.577 88.591 C 132.577 88.436,132.659 88.309,132.759 88.309 C 133.203 88.309,134.955 83.148,135.225 81.044 C 135.638 77.822,135.454 53.641,135.000 51.579 C 132.857 41.841,126.180 34.720,116.922 32.300 C 114.821 31.750,108.494 31.374,106.697 31.692 M341.317 32.397 C 336.969 32.693,332.158 34.068,329.451 35.789 C 328.793 36.207,328.199 36.549,328.130 36.549 C 327.634 36.549,323.658 40.262,322.538 41.771 C 321.211 43.559,319.933 46.422,318.917 49.884 C 317.947 53.190,317.997 82.691,318.978 85.774 C 320.050 89.143,320.685 90.544,322.233 92.948 C 324.278 96.126,328.388 99.468,332.123 100.991 C 332.809 101.271,333.575 101.589,333.825 101.699 C 336.945 103.063,345.644 103.903,348.298 103.096 C 348.704 102.973,349.546 102.770,350.170 102.644 C 352.172 102.242,353.462 101.858,353.462 101.664 C 353.462 101.561,353.614 101.476,353.800 101.476 C 354.287 101.476,356.413 100.517,356.413 100.298 C 356.413 100.197,356.555 100.114,356.729 100.114 C 357.199 100.114,359.667 98.231,361.138 96.751 C 364.970 92.893,367.087 88.575,367.892 82.974 C 368.369 79.652,368.193 55.956,367.671 53.235 C 365.217 40.445,353.951 31.537,341.317 32.397 M145.995 81.851 C 144.852 90.688,142.668 95.102,136.508 101.022 C 131.264 106.061,131.288 108.617,136.634 114.292 C 142.546 120.567,144.859 125.149,146.210 133.258 C 147.207 139.242,147.256 139.358,147.762 136.935 C 149.145 130.316,145.690 121.831,138.604 114.444 C 133.104 108.710,133.085 106.311,138.497 101.085 C 143.681 96.081,146.740 90.687,147.274 85.614 C 147.415 84.269,146.912 77.866,146.665 77.866 C 146.579 77.866,146.278 79.659,145.995 81.851 M253.251 80.760 C 252.607 91.211,252.785 136.402,253.473 137.090 C 254.689 138.306,255.060 86.709,253.891 78.944 C 253.656 77.386,253.417 78.064,253.251 80.760 M226.674 108.067 C 232.136 110.032,230.429 118.572,224.177 120.556 C 223.535 120.760,220.475 120.883,213.734 120.978 L 204.200 121.112 202.910 121.717 C 201.196 122.520,200.304 123.732,200.126 125.496 C 200.055 126.207,199.884 127.778,199.747 128.989 C 198.491 140.090,200.050 146.452,204.320 147.639 C 205.614 147.998,221.816 148.214,220.933 147.860 C 220.696 147.765,220.695 147.676,220.925 147.398 C 221.124 147.158,221.255 145.592,221.356 142.255 C 221.503 137.353,221.859 135.477,222.780 134.733 C 222.935 134.608,223.289 134.066,223.567 133.527 C 225.268 130.227,229.258 129.532,231.813 132.090 C 233.240 133.519,233.368 134.131,233.370 139.523 C 233.371 142.033,233.437 144.867,233.518 145.823 L 233.665 147.560 235.441 147.560 C 240.569 147.560,242.941 151.271,240.811 155.959 C 239.511 158.819,238.675 159.654,236.061 160.701 C 235.355 160.984,234.486 161.540,234.131 161.936 L 233.485 162.656 233.371 184.904 L 233.258 207.151 232.558 208.875 C 231.347 211.857,229.649 213.404,226.948 213.984 C 225.178 214.364,169.735 214.449,167.762 214.075 C 164.512 213.458,162.503 211.504,161.740 208.217 C 161.133 205.601,161.280 160.925,161.903 158.797 C 162.633 156.300,162.684 154.057,162.051 152.303 L 161.527 150.851 161.454 133.825 C 161.377 115.922,161.408 115.246,162.392 113.363 C 163.883 110.510,166.095 108.464,168.268 107.928 C 170.124 107.471,225.381 107.602,226.674 108.067 M191.714 110.558 C 185.602 110.763,185.929 110.733,186.463 111.044 C 187.402 111.589,206.506 111.621,209.308 111.082 C 211.601 110.640,199.746 110.287,191.714 110.558 M106.016 116.113 C 98.068 117.290,90.946 122.589,87.853 129.627 C 86.343 133.062,85.887 135.092,85.452 140.295 C 85.216 143.121,85.095 171.672,85.319 171.534 C 85.435 171.462,85.538 172.607,85.558 174.183 C 85.594 177.006,85.736 178.366,86.040 178.774 C 86.132 178.899,86.279 179.486,86.364 180.079 C 86.450 180.673,86.616 181.158,86.734 181.158 C 86.851 181.158,86.947 181.350,86.947 181.586 C 86.947 184.083,93.436 191.796,96.481 192.918 C 96.669 192.987,96.873 193.101,96.935 193.173 C 97.066 193.323,98.274 193.913,99.432 194.394 C 101.572 195.281,102.673 195.589,105.789 196.172 C 107.344 196.463,115.407 196.290,116.345 195.946 C 116.720 195.809,117.792 195.474,118.729 195.202 C 119.665 194.931,120.585 194.628,120.772 194.531 C 120.959 194.433,121.623 194.117,122.247 193.828 C 122.872 193.539,123.417 193.226,123.458 193.133 C 123.500 193.039,123.652 192.963,123.797 192.963 C 124.989 192.963,131.896 186.606,131.896 185.509 C 131.896 185.384,131.987 185.248,132.098 185.206 C 132.381 185.101,133.939 182.163,133.939 181.735 C 133.939 181.542,134.032 181.385,134.146 181.385 C 134.260 181.385,134.424 180.951,134.512 180.420 C 134.599 179.889,134.752 179.353,134.850 179.228 C 135.504 178.399,135.797 141.605,135.183 137.457 C 133.022 122.862,120.806 113.923,106.016 116.113 M228.619 136.407 C 228.182 137.224,228.413 138.933,228.961 138.933 C 229.547 138.933,229.706 136.231,229.130 136.042 C 228.982 135.994,228.753 136.158,228.619 136.407 M85.528 164.059 C 85.493 168.032,85.464 164.847,85.464 156.981 C 85.464 149.115,85.493 145.864,85.528 149.757 C 85.562 153.649,85.563 160.085,85.528 164.059 M228.733 144.129 C 228.651 144.262,228.436 145.283,228.256 146.398 C 227.829 149.033,227.628 149.526,226.513 150.668 L 225.584 151.620 226.198 151.774 C 227.779 152.171,229.119 151.384,229.417 149.884 C 229.812 147.887,229.264 143.270,228.733 144.129 M219.469 151.322 C 219.386 151.405,217.377 151.538,215.005 151.617 C 210.602 151.763,209.746 151.948,210.408 152.611 C 210.606 152.808,212.055 152.938,215.164 153.036 C 217.624 153.114,219.809 153.251,220.020 153.339 C 220.767 153.652,224.518 152.584,224.518 152.058 C 224.518 151.956,224.218 151.873,223.851 151.873 C 223.485 151.873,222.949 151.784,222.660 151.676 C 221.906 151.394,219.647 151.144,219.469 151.322 M207.037 161.167 C 203.016 161.573,200.446 163.409,199.926 166.250 C 199.093 170.794,199.577 194.388,200.529 195.640 C 201.303 196.658,203.043 198.222,203.796 198.575 C 204.951 199.118,219.054 199.193,220.046 198.662 C 221.682 197.786,221.796 196.542,221.781 179.682 C 221.765 162.368,221.794 162.613,219.622 161.530 C 218.634 161.037,210.623 160.806,207.037 161.167 M80.218 176.551 C 79.492 179.443,83.083 187.781,86.954 192.194 C 91.368 197.224,99.262 201.310,104.749 201.404 C 108.090 201.461,107.902 200.664,104.490 200.309 C 92.990 199.109,83.900 190.476,81.036 178.036 C 80.509 175.748,80.447 175.636,80.218 176.551 M210.495 202.031 C 208.299 202.388,208.664 203.004,211.197 203.215 C 217.713 203.757,222.846 203.061,219.279 202.118 C 218.194 201.831,212.093 201.771,210.495 202.031 M0.031 217.083 L 0.000 227.015 9.705 227.000 C 18.603 226.986,19.306 226.958,18.161 226.657 C 8.933 224.236,1.775 216.704,0.164 207.719 C 0.108 207.406,0.048 211.620,0.031 217.083 M399.773 208.445 C 399.773 209.173,398.496 212.716,397.684 214.240 C 394.324 220.548,387.928 225.511,381.524 226.780 C 380.977 226.888,384.608 226.975,390.295 226.990 L 400.000 227.015 400.000 217.480 C 400.000 212.236,399.949 207.946,399.886 207.946 C 399.824 207.946,399.773 208.170,399.773 208.445 " stroke="none" fill="#ffffff" fill-rule="evenodd"></path><path id="path1" d="M19.864 0.234 C 19.489 0.337,18.468 0.595,17.594 0.808 C 15.677 1.275,12.333 2.827,10.406 4.144 C 5.966 7.180,2.023 12.770,0.840 17.707 C 0.645 18.519,0.372 19.745,0.232 20.431 C -0.153 22.318,0.031 205.944,0.419 207.832 C 2.354 217.238,9.342 224.319,18.956 226.614 C 20.716 227.034,379.364 227.021,381.271 226.601 C 383.538 226.102,385.232 225.488,387.174 224.463 C 388.777 223.616,388.988 223.498,389.103 223.382 C 389.166 223.319,389.677 222.962,390.238 222.587 C 391.538 221.722,394.684 218.572,395.573 217.246 C 395.947 216.688,396.317 216.180,396.394 216.118 C 397.070 215.575,398.883 211.255,399.528 208.652 L 400.000 206.748 400.000 113.593 C 400.000 44.852,399.932 20.154,399.742 19.356 C 397.449 9.737,390.899 2.678,382.520 0.794 C 381.583 0.584,380.504 0.319,380.120 0.206 C 379.238 -0.055,20.810 -0.027,19.864 0.234 M382.279 3.828 C 388.647 5.849,393.814 10.809,395.916 16.919 C 397.135 20.461,397.072 14.791,397.001 114.642 L 396.935 206.697 396.421 208.513 C 394.409 215.617,388.898 221.256,381.952 223.319 C 380.291 223.812,22.551 224.097,19.864 223.607 C 11.501 222.082,4.583 214.937,3.403 206.606 C 3.231 205.390,3.178 177.559,3.226 112.372 L 3.293 19.864 3.828 18.161 C 6.277 10.361,12.275 4.963,20.318 3.323 C 20.568 3.272,101.731 3.244,200.681 3.261 L 380.590 3.292 382.279 3.828 M25.273 16.354 C 22.128 16.980,19.372 19.473,18.253 22.701 C 17.577 24.654,17.574 202.347,18.250 204.313 C 19.159 206.956,21.060 209.021,23.723 210.256 L 24.858 210.783 84.222 210.783 L 143.587 210.783 145.113 210.060 C 147.904 208.738,149.892 206.283,150.501 203.405 C 151.055 200.788,150.704 128.992,150.126 126.674 C 148.277 119.263,144.127 112.874,138.659 109.019 C 136.801 107.709,136.801 107.708,138.546 106.583 C 144.214 102.930,149.124 95.633,150.384 88.987 C 150.877 86.392,150.919 25.101,150.429 23.269 C 149.679 20.460,148.010 18.440,145.335 17.105 L 143.587 16.232 84.904 16.198 C 52.628 16.180,25.794 16.250,25.273 16.354 M256.981 16.366 C 254.224 16.902,251.623 19.004,250.326 21.743 L 249.603 23.269 249.603 114.302 L 249.603 205.335 250.158 206.422 C 252.561 211.125,258.637 212.170,262.333 208.515 C 264.807 206.069,264.570 210.046,264.637 169.921 C 264.700 132.001,264.668 132.999,265.947 129.082 C 272.948 107.635,305.599 106.687,313.075 127.714 C 314.616 132.049,314.491 128.741,314.630 168.785 L 314.756 204.881 315.299 206.229 C 315.950 207.846,317.579 209.570,319.129 210.287 L 320.204 210.783 348.922 210.783 L 377.639 210.783 378.955 210.167 C 380.644 209.375,382.704 207.320,383.501 205.630 C 384.642 203.211,384.627 203.984,384.417 157.662 L 384.219 114.302 383.606 113.051 C 382.009 109.795,378.689 107.832,374.781 107.832 C 372.569 107.832,372.567 107.761,374.726 106.107 C 379.030 102.811,382.076 98.113,383.599 92.425 L 384.184 90.238 384.360 57.775 C 384.479 35.859,384.461 24.870,384.304 23.950 C 383.679 20.290,380.476 17.034,376.817 16.340 C 375.333 16.058,258.432 16.084,256.981 16.366 M108.513 24.152 C 109.477 24.458,109.705 25.325,108.991 25.971 C 108.580 26.343,108.366 26.357,106.591 26.121 C 105.519 25.978,104.262 25.923,103.797 25.999 C 91.461 28.016,83.100 36.685,81.265 49.361 C 81.018 51.069,80.653 53.252,80.454 54.213 C 80.148 55.695,80.130 56.440,80.336 59.137 C 80.470 60.885,80.641 66.504,80.715 71.623 C 80.883 83.187,81.111 84.573,83.618 89.217 C 87.538 96.478,95.653 102.360,103.405 103.558 C 106.266 104.000,107.001 104.513,105.378 104.933 C 100.368 106.232,88.901 99.468,84.351 92.530 C 79.401 84.982,78.599 79.838,79.476 61.222 C 79.697 56.528,79.694 54.910,79.464 53.101 C 78.413 44.853,83.000 35.229,90.760 29.406 C 96.420 25.157,104.318 22.820,108.513 24.152 M354.711 25.938 C 368.364 30.068,377.630 43.429,375.609 56.073 C 375.439 57.134,375.290 57.942,375.278 57.868 C 375.265 57.794,375.006 56.262,374.702 54.463 C 374.398 52.664,374.034 50.375,373.894 49.376 C 372.776 41.394,366.958 33.363,359.591 29.631 C 356.370 27.999,350.951 26.630,348.581 26.850 C 347.204 26.978,346.879 26.878,346.879 26.328 C 346.879 25.020,350.997 24.815,354.711 25.938 M115.141 30.086 C 125.585 31.913,132.893 38.819,135.913 49.716 C 136.540 51.976,136.538 79.927,135.912 82.179 C 132.626 93.991,123.032 101.131,110.443 101.134 C 96.908 101.137,87.309 93.647,85.027 81.303 C 84.503 78.469,84.511 53.960,85.036 50.835 C 86.943 39.499,94.145 32.421,106.243 29.993 C 107.921 29.656,112.986 29.709,115.141 30.086 M349.731 30.882 C 359.979 32.968,367.783 40.925,369.827 51.370 C 370.499 54.810,370.490 80.942,369.814 83.941 C 366.287 99.606,348.597 108.060,332.804 101.628 C 324.414 98.212,319.209 91.484,318.051 82.560 C 317.738 80.150,317.750 55.658,318.065 53.008 C 319.920 37.403,333.873 27.654,349.731 30.882 M147.064 57.037 C 147.392 60.298,147.756 71.235,147.837 80.250 L 147.894 86.606 147.067 88.990 C 145.131 94.575,143.616 96.875,138.697 101.703 C 133.768 106.540,133.760 108.422,138.645 113.580 C 144.502 119.762,146.849 123.999,148.248 130.911 L 148.740 133.343 148.373 144.146 C 147.748 162.536,147.335 164.902,146.549 154.597 C 146.353 152.037,146.097 149.024,145.978 147.900 C 145.860 146.776,145.652 143.456,145.517 140.522 C 145.196 133.579,144.616 129.608,143.579 127.242 C 143.415 126.867,143.017 125.970,142.696 125.249 C 142.374 124.527,142.111 123.880,142.111 123.810 C 142.111 123.114,137.757 117.615,135.302 115.210 C 132.012 111.988,131.266 110.313,131.518 106.717 C 131.718 103.859,132.280 102.925,135.792 99.615 C 142.228 93.552,144.234 89.147,144.614 80.250 C 144.965 72.013,145.070 70.095,145.289 67.877 C 145.407 66.691,145.607 64.086,145.735 62.089 C 146.007 57.846,146.419 54.257,146.634 54.257 C 146.717 54.257,146.911 55.508,147.064 57.037 M253.896 55.790 C 254.242 57.995,254.956 71.149,255.156 79.001 C 255.433 89.852,255.581 94.738,255.863 102.270 C 255.985 105.516,256.031 108.837,255.966 109.648 C 255.901 110.460,255.693 117.049,255.504 124.291 C 254.853 149.180,254.187 160.960,253.471 160.244 C 252.036 158.809,251.850 69.948,253.254 56.246 C 253.422 54.607,253.682 54.422,253.896 55.790 M375.786 70.488 L 375.823 80.023 375.098 83.094 C 373.496 89.888,370.931 94.576,366.465 98.878 C 364.970 100.317,362.155 102.299,361.927 102.071 C 361.844 101.988,362.008 101.756,362.292 101.557 C 370.472 95.828,374.565 88.121,374.574 78.434 C 374.579 73.382,374.998 60.417,375.184 59.591 C 375.559 57.922,375.751 61.398,375.786 70.488 M298.060 107.503 C 310.115 109.790,317.465 117.573,319.334 130.029 C 319.910 133.872,319.650 154.736,318.981 158.343 C 318.632 160.226,318.054 147.016,318.050 137.051 C 318.046 127.982,317.147 123.870,314.183 119.354 C 310.452 113.671,302.865 109.418,295.262 108.747 C 292.990 108.546,292.304 108.286,292.783 107.808 C 293.450 107.140,295.518 107.021,298.060 107.503 M167.761 108.421 C 166.362 108.851,165.195 109.873,164.493 111.281 L 163.905 112.461 163.905 130.928 C 163.905 152.265,163.749 150.981,166.511 152.390 L 167.187 152.735 166.358 153.224 C 165.486 153.738,164.643 154.735,164.181 155.800 C 163.696 156.915,163.790 206.383,164.279 207.332 C 164.968 208.670,165.710 209.456,166.912 210.122 L 168.104 210.783 198.411 210.783 L 228.717 210.783 229.786 210.257 C 230.979 209.669,232.106 208.503,232.662 207.281 C 232.994 206.551,233.037 204.029,233.093 182.155 L 233.156 157.841 235.370 157.719 C 239.285 157.503,241.310 155.850,241.315 152.866 C 241.321 149.785,239.584 148.286,235.692 148.014 C 234.409 147.924,233.322 147.811,233.276 147.762 C 233.231 147.713,233.151 144.659,233.099 140.976 C 233.018 135.235,232.950 134.175,232.620 133.551 C 230.840 130.188,226.454 129.893,224.338 132.994 L 223.610 134.062 223.610 141.024 C 223.610 146.345,223.543 148.030,223.326 148.170 C 222.736 148.552,205.453 148.335,204.079 147.928 C 199.842 146.673,198.430 141.633,199.064 130.024 C 199.719 118.021,199.974 117.833,215.551 117.813 C 226.201 117.800,226.497 117.772,227.882 116.662 C 230.805 114.319,229.940 109.390,226.421 108.338 C 224.967 107.904,169.188 107.982,167.761 108.421 M105.456 109.977 C 106.790 110.535,106.391 111.237,104.739 111.237 C 98.478 111.237,89.354 116.863,85.016 123.399 C 81.280 129.027,80.902 130.958,80.598 145.970 C 80.307 160.294,79.955 162.502,79.460 153.115 C 78.446 133.912,79.984 126.624,86.634 119.122 C 91.984 113.087,101.654 108.388,105.456 109.977 M213.003 110.340 C 218.490 110.561,220.137 110.744,219.605 111.073 C 219.066 111.407,212.313 111.899,206.493 112.030 C 203.010 112.108,199.537 112.221,198.775 112.281 C 195.120 112.569,177.636 111.575,176.650 111.024 C 175.108 110.161,197.900 109.733,213.003 110.340 M116.345 114.057 C 126.349 116.466,133.427 123.578,135.906 133.712 C 136.538 136.297,136.548 175.454,135.917 177.753 C 131.836 192.611,115.455 200.757,100.795 195.218 C 100.108 194.958,99.240 194.633,98.865 194.496 C 92.510 192.164,86.976 185.347,85.273 177.753 C 84.582 174.668,84.515 137.749,85.195 134.219 C 87.361 122.964,95.412 115.383,107.037 113.651 C 108.623 113.415,114.798 113.684,116.345 114.057 M229.898 135.868 C 230.160 136.617,230.169 137.100,229.945 138.625 C 229.671 140.489,229.707 141.786,230.199 147.638 C 230.512 151.375,230.420 152.029,229.452 152.939 C 229.048 153.319,228.555 153.867,228.357 154.156 L 227.997 154.682 226.941 154.186 C 225.684 153.595,225.034 153.575,222.304 154.044 C 220.647 154.329,219.894 154.351,218.502 154.157 C 217.547 154.025,215.369 153.915,213.661 153.913 C 207.541 153.908,205.122 152.413,209.181 151.145 C 210.362 150.776,219.859 150.511,221.967 150.788 C 226.979 151.447,228.278 148.976,228.097 139.129 C 228.042 136.112,228.077 135.762,228.476 135.318 C 229.090 134.638,229.527 134.807,229.898 135.868 M223.785 176.390 C 223.867 201.146,224.784 199.305,212.372 199.315 C 203.830 199.322,203.632 199.285,201.577 197.276 C 199.238 194.989,199.319 195.607,199.319 180.071 C 199.319 164.149,199.486 162.848,201.870 160.132 C 203.861 157.864,204.198 157.805,214.869 157.851 L 223.723 157.889 223.785 176.390 M80.749 173.880 C 80.904 174.416,81.243 176.040,81.502 177.489 C 83.714 189.840,93.642 199.325,104.767 199.716 C 109.666 199.888,110.520 201.611,105.879 201.960 C 93.692 202.876,78.429 187.082,79.549 174.716 C 79.759 172.405,80.227 172.079,80.749 173.880 M228.600 192.906 C 228.588 197.531,226.302 201.547,222.701 203.268 L 221.226 203.973 213.848 203.973 C 206.550 203.973,206.457 203.967,205.266 203.429 C 203.781 202.758,203.837 202.706,206.924 201.911 C 209.489 201.250,214.072 201.060,220.091 201.363 C 224.328 201.576,226.214 199.944,227.256 195.164 C 228.188 190.886,228.607 190.183,228.600 192.906 " stroke="none" fill="#82a8b9" fill-rule="evenodd"></path><path id="path2" d="M18.742 0.255 C 18.250 0.371,17.794 0.518,17.729 0.583 C 17.569 0.743,19.520 0.433,20.091 0.208 L 20.545 0.029 20.091 0.037 C 19.841 0.042,19.234 0.140,18.742 0.255 M380.023 0.187 C 380.210 0.300,380.874 0.452,381.498 0.524 C 382.862 0.682,382.198 0.355,380.704 0.133 C 380.058 0.037,379.808 0.057,380.023 0.187 M15.778 1.109 C 14.163 1.694,11.564 3.038,10.897 3.632 L 10.329 4.138 10.897 3.771 C 11.902 3.121,15.586 1.356,16.605 1.036 C 17.149 0.866,17.440 0.720,17.253 0.712 C 17.066 0.704,16.402 0.883,15.778 1.109 M383.087 0.873 C 383.789 1.174,384.966 1.406,384.563 1.164 C 384.376 1.052,383.865 0.897,383.428 0.819 C 382.892 0.725,382.781 0.742,383.087 0.873 M385.061 1.482 C 385.127 1.548,386.038 2.015,387.086 2.520 C 388.133 3.025,388.888 3.335,388.763 3.209 C 388.638 3.082,387.798 2.615,386.896 2.171 C 385.369 1.418,384.773 1.194,385.061 1.482 M20.318 3.323 C 12.275 4.963,6.277 10.361,3.828 18.161 L 3.293 19.864 3.226 112.372 C 3.178 177.559,3.231 205.390,3.403 206.606 C 4.583 214.937,11.501 222.082,19.864 223.607 C 22.551 224.097,380.291 223.812,381.952 223.319 C 388.898 221.256,394.409 215.617,396.421 208.513 L 396.935 206.697 397.001 114.642 C 397.072 14.791,397.135 20.461,395.916 16.919 C 393.814 10.809,388.647 5.849,382.279 3.828 L 380.590 3.292 200.681 3.261 C 101.731 3.244,20.568 3.272,20.318 3.323 M380.190 3.658 C 388.733 5.658,394.358 11.163,396.240 19.367 C 396.699 21.366,396.792 205.530,396.335 207.431 C 394.560 214.823,390.235 219.725,382.860 222.703 C 380.492 223.660,390.442 223.611,200.075 223.610 C 41.065 223.610,20.760 223.571,19.485 223.267 C 13.580 221.858,9.322 218.698,5.873 213.167 C 5.203 212.092,4.292 209.514,3.849 207.443 C 3.236 204.577,3.141 23.297,3.750 20.091 C 5.248 12.207,11.906 5.224,19.211 3.873 C 19.923 3.742,20.557 3.583,20.620 3.520 C 20.875 3.264,379.096 3.402,380.190 3.658 M389.103 3.484 C 389.103 3.542,389.639 3.974,390.293 4.445 C 391.964 5.645,393.726 7.354,395.072 9.081 C 396.370 10.746,396.757 11.184,396.474 10.670 C 395.366 8.650,389.103 2.545,389.103 3.484 M9.268 4.693 C 6.939 6.565,2.361 11.972,2.765 12.375 C 2.815 12.425,3.377 11.679,4.014 10.717 C 5.234 8.874,7.294 6.614,9.194 5.033 C 9.818 4.514,10.260 4.089,10.176 4.088 C 10.092 4.087,9.684 4.359,9.268 4.693 M397.283 12.386 C 397.279 12.518,397.426 12.824,397.609 13.067 C 397.792 13.309,397.946 13.399,397.950 13.267 C 397.954 13.135,397.807 12.828,397.624 12.586 C 397.440 12.344,397.287 12.253,397.283 12.386 M1.910 13.983 C 1.591 14.681,1.385 15.309,1.454 15.377 C 1.522 15.446,1.639 15.309,1.714 15.072 C 1.788 14.836,1.949 14.457,2.071 14.230 C 2.420 13.581,2.724 12.713,2.602 12.713 C 2.541 12.713,2.230 13.284,1.910 13.983 M397.965 13.746 C 397.969 13.864,398.127 14.217,398.315 14.529 L 398.657 15.096 398.508 14.529 C 398.353 13.937,397.950 13.356,397.965 13.746 M398.791 15.778 C 398.866 16.152,399.011 16.612,399.116 16.799 C 399.456 17.410,399.339 16.544,398.978 15.778 L 398.657 15.096 398.791 15.778 M0.908 16.572 C 0.767 17.097,0.696 17.570,0.750 17.625 C 0.804 17.679,0.959 17.289,1.094 16.758 C 1.229 16.227,1.300 15.753,1.252 15.705 C 1.204 15.657,1.049 16.047,0.908 16.572 M23.723 16.127 C 18.795 16.782,15.326 20.106,14.482 24.981 C 14.059 27.424,14.048 202.615,14.471 204.654 C 15.322 208.759,18.190 211.915,22.146 213.100 C 23.828 213.603,137.670 213.881,141.544 213.391 C 146.939 212.709,150.605 209.507,151.417 204.767 C 151.774 202.685,151.641 128.924,151.280 128.468 C 150.972 128.080,150.643 126.906,150.719 126.467 C 150.770 126.173,150.579 125.651,150.023 124.565 C 149.908 124.342,149.869 124.070,149.936 123.962 C 150.002 123.854,149.865 123.373,149.629 122.893 C 149.394 122.413,148.873 121.305,148.470 120.431 C 147.585 118.508,145.531 115.096,145.259 115.096 C 145.151 115.096,145.062 114.985,145.062 114.849 C 145.062 114.552,144.388 113.772,142.054 111.371 C 139.571 108.816,139.579 108.773,143.222 104.994 C 147.770 100.278,150.158 95.851,151.333 89.960 C 151.776 87.738,151.704 24.234,151.257 23.496 C 151.106 23.246,150.706 22.429,150.368 21.680 C 149.453 19.653,146.799 16.805,145.817 16.798 C 145.714 16.797,145.323 16.618,144.949 16.400 C 144.212 15.972,26.884 15.708,23.723 16.127 M256.186 16.119 C 250.710 17.595,247.705 20.567,246.885 25.318 C 246.294 28.745,246.473 205.480,247.069 207.264 C 249.945 215.869,259.606 215.611,264.065 206.810 L 264.813 205.335 264.946 169.580 C 265.089 131.448,265.037 133.208,266.127 129.625 C 269.278 119.277,278.713 112.811,290.634 112.831 C 296.367 112.840,303.165 115.190,305.368 117.924 C 305.574 118.179,306.016 118.695,306.351 119.069 C 308.941 121.966,310.374 124.865,311.455 129.398 C 312.095 132.084,312.127 133.790,312.256 172.226 C 312.335 195.872,312.443 205.987,312.625 206.846 C 313.336 210.197,315.355 212.361,318.757 213.420 C 320.709 214.028,373.905 214.091,376.244 213.489 C 379.252 212.714,383.201 209.227,383.201 207.344 C 383.201 207.051,383.278 206.810,383.373 206.810 C 383.468 206.810,383.800 206.121,384.111 205.278 L 384.677 203.746 384.677 159.364 C 384.677 117.493,384.654 114.921,384.275 113.885 C 383.423 111.553,381.363 109.312,379.228 108.394 C 378.729 108.179,378.143 107.914,377.926 107.804 C 377.709 107.695,377.281 107.605,376.974 107.605 C 375.848 107.605,376.231 106.768,379.039 103.093 C 379.809 102.085,380.620 100.849,380.842 100.347 C 381.064 99.844,381.320 99.432,381.410 99.432 C 381.501 99.432,381.643 99.126,381.725 98.751 C 381.808 98.377,381.957 98.070,382.057 98.070 C 382.158 98.070,382.295 97.841,382.363 97.560 C 382.430 97.279,382.752 96.334,383.078 95.460 C 384.661 91.211,384.589 93.011,384.635 56.195 L 384.677 23.042 383.906 21.507 C 382.928 19.557,381.117 17.750,379.155 16.765 L 377.639 16.005 317.253 15.970 C 284.041 15.951,256.561 16.018,256.186 16.119 M145.335 17.105 C 148.010 18.440,149.679 20.460,150.429 23.269 C 150.919 25.101,150.877 86.392,150.384 88.987 C 149.124 95.633,144.214 102.930,138.546 106.583 C 136.801 107.708,136.801 107.709,138.659 109.019 C 144.127 112.874,148.277 119.263,150.126 126.674 C 150.704 128.992,151.055 200.788,150.501 203.405 C 149.892 206.283,147.904 208.738,145.113 210.060 L 143.587 210.783 84.222 210.783 L 24.858 210.783 23.723 210.256 C 21.060 209.021,19.159 206.956,18.250 204.313 C 17.574 202.347,17.577 24.654,18.253 22.701 C 19.372 19.473,22.128 16.980,25.273 16.354 C 25.794 16.250,52.628 16.180,84.904 16.198 L 143.587 16.232 145.335 17.105 M376.817 16.340 C 380.476 17.034,383.679 20.290,384.304 23.950 C 384.461 24.870,384.479 35.859,384.360 57.775 L 384.184 90.238 383.599 92.425 C 382.076 98.113,379.030 102.811,374.726 106.107 C 372.567 107.761,372.569 107.832,374.781 107.832 C 378.689 107.832,382.009 109.795,383.606 113.051 L 384.219 114.302 384.417 157.662 C 384.627 203.984,384.642 203.211,383.501 205.630 C 382.704 207.320,380.644 209.375,378.955 210.167 L 377.639 210.783 348.922 210.783 L 320.204 210.783 319.129 210.287 C 317.579 209.570,315.950 207.846,315.299 206.229 L 314.756 204.881 314.630 168.785 C 314.491 128.741,314.616 132.049,313.075 127.714 C 306.151 108.241,276.693 107.095,267.225 125.931 C 264.608 131.136,264.705 129.499,264.637 169.921 C 264.570 210.046,264.807 206.069,262.333 208.515 C 258.637 212.170,252.561 211.125,250.158 206.422 L 249.603 205.335 249.603 114.302 L 249.603 23.269 250.326 21.743 C 251.623 19.004,254.224 16.902,256.981 16.366 C 258.432 16.084,375.333 16.058,376.817 16.340 M399.474 18.161 C 399.551 18.723,399.700 19.387,399.807 19.637 C 399.930 19.924,399.949 19.715,399.858 19.069 C 399.780 18.507,399.630 17.843,399.525 17.594 C 399.408 17.313,399.389 17.530,399.474 18.161 M0.249 19.065 C -0.020 20.320,-0.072 21.033,0.120 20.841 C 0.277 20.684,0.698 18.102,0.585 17.989 C 0.537 17.942,0.386 18.426,0.249 19.065 M103.352 23.956 C 89.353 26.126,77.819 40.197,79.464 53.101 C 79.694 54.910,79.697 56.528,79.476 61.222 C 78.599 79.838,79.401 84.982,84.351 92.530 C 88.901 99.468,100.368 106.232,105.378 104.933 C 107.001 104.513,106.266 104.000,103.405 103.558 C 95.653 102.360,87.538 96.478,83.618 89.217 C 81.111 84.573,80.883 83.187,80.715 71.623 C 80.641 66.504,80.470 60.885,80.336 59.137 C 80.130 56.440,80.148 55.695,80.454 54.213 C 80.653 53.252,81.018 51.069,81.265 49.361 C 83.100 36.685,91.461 28.016,103.797 25.999 C 104.262 25.923,105.519 25.978,106.591 26.121 C 108.366 26.357,108.580 26.343,108.991 25.971 C 110.693 24.431,107.547 23.306,103.352 23.956 M107.377 24.493 C 108.842 24.901,108.163 25.426,106.171 25.426 C 93.927 25.426,82.915 35.566,80.803 48.785 C 80.450 50.994,79.920 51.186,79.913 49.107 C 79.876 38.969,90.282 27.331,101.589 24.865 C 102.588 24.647,103.507 24.437,103.632 24.398 C 104.056 24.265,106.807 24.335,107.377 24.493 M347.389 25.533 C 346.235 26.375,346.813 27.014,348.581 26.850 C 350.951 26.630,356.370 27.999,359.591 29.631 C 366.958 33.363,372.776 41.394,373.894 49.376 C 374.034 50.375,374.398 52.664,374.702 54.463 C 375.006 56.262,375.265 57.794,375.278 57.868 C 375.290 57.942,375.439 57.134,375.609 56.073 C 377.886 41.828,364.877 25.937,350.397 25.274 C 348.316 25.179,347.815 25.222,347.389 25.533 M352.327 25.895 C 360.602 27.238,368.391 33.129,372.566 41.203 C 374.059 44.092,375.251 48.416,375.254 50.953 C 375.256 53.100,374.867 52.642,374.472 50.034 C 372.703 38.338,364.041 29.133,352.586 26.772 C 351.417 26.531,350.172 26.334,349.818 26.334 C 349.129 26.334,348.734 25.993,349.204 25.803 C 349.680 25.611,350.775 25.644,352.327 25.895 M106.243 29.993 C 94.145 32.421,86.943 39.499,85.036 50.835 C 84.511 53.960,84.503 78.469,85.027 81.303 C 87.309 93.647,96.908 101.137,110.443 101.134 C 123.032 101.131,132.626 93.991,135.912 82.179 C 136.538 79.927,136.540 51.976,135.913 49.716 C 132.893 38.819,125.585 31.913,115.141 30.086 C 112.986 29.709,107.921 29.656,106.243 29.993 M341.884 30.336 C 328.800 31.449,319.585 40.221,318.065 53.008 C 317.750 55.658,317.738 80.150,318.051 82.560 C 321.109 106.117,354.425 111.828,367.075 90.962 C 368.256 89.015,369.240 86.493,369.814 83.941 C 370.490 80.942,370.499 54.810,369.827 51.370 C 367.248 38.190,355.299 29.195,341.884 30.336 M116.922 32.300 C 126.180 34.720,132.857 41.841,135.000 51.579 C 135.454 53.641,135.638 77.822,135.225 81.044 C 134.955 83.148,133.203 88.309,132.759 88.309 C 132.659 88.309,132.577 88.436,132.577 88.591 C 132.577 89.668,128.907 93.820,126.220 95.783 C 125.533 96.284,124.869 96.775,124.745 96.873 C 124.047 97.422,120.190 99.184,118.729 99.621 C 117.792 99.901,116.720 100.241,116.345 100.377 C 115.401 100.718,107.334 100.888,105.789 100.599 C 100.661 99.640,97.532 98.342,94.167 95.778 C 90.969 93.343,86.955 88.100,86.948 86.348 C 86.947 86.207,86.794 85.798,86.608 85.440 C 86.421 85.083,86.268 84.518,86.267 84.185 C 86.266 83.852,86.159 83.544,86.028 83.500 C 85.352 83.275,84.745 57.096,85.351 54.334 C 85.492 53.690,85.697 52.464,85.807 51.610 C 86.006 50.059,86.526 47.964,86.926 47.106 C 87.042 46.856,87.394 46.068,87.707 45.354 C 90.921 38.032,97.462 33.326,106.697 31.692 C 108.494 31.374,114.821 31.750,116.922 32.300 M346.652 32.714 C 356.963 33.925,365.580 42.337,367.671 53.235 C 368.193 55.956,368.369 79.652,367.892 82.974 C 367.087 88.575,364.970 92.893,361.138 96.751 C 359.667 98.231,357.199 100.114,356.729 100.114 C 356.555 100.114,356.413 100.197,356.413 100.298 C 356.413 100.517,354.287 101.476,353.800 101.476 C 353.614 101.476,353.462 101.561,353.462 101.664 C 353.462 101.858,352.172 102.242,350.170 102.644 C 349.546 102.770,348.704 102.973,348.298 103.096 C 345.644 103.903,336.945 103.063,333.825 101.699 C 333.575 101.589,332.809 101.271,332.123 100.991 C 328.388 99.468,324.278 96.126,322.233 92.948 C 320.685 90.544,320.050 89.143,318.978 85.774 C 317.997 82.691,317.947 53.190,318.917 49.884 C 319.933 46.422,321.211 43.559,322.538 41.771 C 323.658 40.262,327.634 36.549,328.130 36.549 C 328.199 36.549,328.793 36.207,329.451 35.789 C 331.621 34.410,335.269 33.193,338.706 32.702 C 341.750 32.267,342.861 32.269,346.652 32.714 M146.225 56.356 C 146.084 57.511,145.863 60.091,145.735 62.089 C 145.607 64.086,145.407 66.691,145.289 67.877 C 145.070 70.095,144.965 72.013,144.614 80.250 C 144.234 89.147,142.228 93.552,135.792 99.615 C 132.280 102.925,131.718 103.859,131.518 106.717 C 131.266 110.313,132.012 111.988,135.302 115.210 C 137.757 117.615,142.111 123.114,142.111 123.810 C 142.111 123.880,142.374 124.527,142.696 125.249 C 143.017 125.970,143.415 126.867,143.579 127.242 C 144.616 129.608,145.196 133.579,145.517 140.522 C 145.652 143.456,145.860 146.776,145.978 147.900 C 146.097 149.024,146.353 152.037,146.549 154.597 C 147.335 164.902,147.748 162.536,148.373 144.146 L 148.740 133.343 148.248 130.911 C 146.849 123.999,144.502 119.762,138.645 113.580 C 133.760 108.422,133.768 106.540,138.697 101.703 C 143.616 96.875,145.131 94.575,147.067 88.990 L 147.894 86.606 147.837 80.250 C 147.718 67.084,147.125 54.257,146.634 54.257 C 146.551 54.257,146.367 55.201,146.225 56.356 M253.254 56.246 C 251.850 69.948,252.036 158.809,253.471 160.244 C 253.741 160.514,253.889 159.860,254.068 157.607 C 254.771 148.794,255.007 143.318,255.504 124.291 C 255.693 117.049,255.901 110.460,255.966 109.648 C 256.031 108.837,255.985 105.516,255.863 102.270 C 255.581 94.738,255.433 89.852,255.156 79.001 C 254.956 71.149,254.242 57.995,253.896 55.790 C 253.682 54.422,253.422 54.607,253.254 56.246 M375.184 59.591 C 374.998 60.417,374.579 73.382,374.574 78.434 C 374.565 88.121,370.472 95.828,362.292 101.557 C 362.008 101.756,361.844 101.988,361.927 102.071 C 362.155 102.299,364.970 100.317,366.465 98.878 C 370.931 94.576,373.496 89.888,375.098 83.094 L 375.823 80.023 375.786 70.488 C 375.751 61.398,375.559 57.922,375.184 59.591 M147.111 81.130 C 147.797 88.827,145.369 94.450,138.497 101.085 C 133.085 106.311,133.104 108.710,138.604 114.444 C 145.690 121.831,149.145 130.316,147.762 136.935 C 147.256 139.358,147.207 139.242,146.210 133.258 C 144.859 125.149,142.546 120.567,136.634 114.292 C 131.288 108.617,131.264 106.061,136.508 101.022 C 142.668 95.102,144.852 90.688,145.995 81.851 C 146.278 79.659,146.579 77.866,146.665 77.866 C 146.750 77.866,146.951 79.335,147.111 81.130 M253.891 78.944 C 255.060 86.709,254.689 138.306,253.473 137.090 C 252.785 136.402,252.607 91.211,253.251 80.760 C 253.417 78.064,253.656 77.386,253.891 78.944 M293.793 107.377 C 291.709 107.869,292.377 108.492,295.262 108.747 C 302.865 109.418,310.452 113.671,314.183 119.354 C 317.147 123.870,318.046 127.982,318.050 137.051 C 318.054 147.016,318.632 160.226,318.981 158.343 C 319.650 154.736,319.910 133.872,319.334 130.029 C 318.204 122.496,315.736 117.538,311.216 113.719 C 306.261 109.532,297.762 106.439,293.793 107.377 M168.268 107.928 C 166.095 108.464,163.883 110.510,162.392 113.363 C 161.408 115.246,161.377 115.922,161.454 133.825 L 161.527 150.851 162.051 152.303 C 162.684 154.057,162.633 156.300,161.903 158.797 C 161.280 160.925,161.133 205.601,161.740 208.217 C 162.503 211.504,164.512 213.458,167.762 214.075 C 169.735 214.449,225.178 214.364,226.948 213.984 C 229.649 213.404,231.347 211.857,232.558 208.875 L 233.258 207.151 233.371 184.904 L 233.485 162.656 234.131 161.936 C 234.486 161.540,235.355 160.984,236.061 160.701 C 238.675 159.654,239.511 158.819,240.811 155.959 C 242.941 151.271,240.569 147.560,235.441 147.560 L 233.665 147.560 233.518 145.823 C 233.437 144.867,233.371 142.033,233.370 139.523 C 233.368 134.131,233.240 133.519,231.813 132.090 C 229.258 129.532,225.268 130.227,223.567 133.527 C 223.289 134.066,222.935 134.608,222.780 134.733 C 221.859 135.477,221.503 137.353,221.356 142.255 C 221.255 145.592,221.124 147.158,220.925 147.398 C 220.695 147.676,220.696 147.765,220.933 147.860 C 221.816 148.214,205.614 147.998,204.320 147.639 C 200.050 146.452,198.491 140.090,199.747 128.989 C 199.884 127.778,200.055 126.207,200.126 125.496 C 200.304 123.732,201.196 122.520,202.910 121.717 L 204.200 121.112 213.734 120.978 C 224.653 120.824,225.227 120.735,227.204 118.874 C 231.071 115.233,230.792 109.549,226.674 108.067 C 225.381 107.602,170.124 107.471,168.268 107.928 M226.421 108.338 C 229.940 109.390,230.805 114.319,227.882 116.662 C 226.497 117.772,226.201 117.800,215.551 117.813 C 199.974 117.833,199.719 118.021,199.064 130.024 C 198.430 141.633,199.842 146.673,204.079 147.928 C 205.453 148.335,222.736 148.552,223.326 148.170 C 223.543 148.030,223.610 146.345,223.610 141.024 L 223.610 134.062 224.338 132.994 C 226.454 129.893,230.840 130.188,232.620 133.551 C 232.950 134.175,233.018 135.235,233.099 140.976 C 233.151 144.659,233.231 147.713,233.276 147.762 C 233.322 147.811,234.409 147.924,235.692 148.014 C 239.584 148.286,241.321 149.785,241.315 152.866 C 241.310 155.850,239.285 157.503,235.370 157.719 L 233.156 157.841 233.093 182.155 C 233.037 204.029,232.994 206.551,232.662 207.281 C 232.106 208.503,230.979 209.669,229.786 210.257 L 228.717 210.783 198.411 210.783 L 168.104 210.783 166.912 210.122 C 165.710 209.456,164.968 208.670,164.279 207.332 C 163.790 206.383,163.696 156.915,164.181 155.800 C 164.643 154.735,165.486 153.738,166.358 153.224 L 167.187 152.735 166.511 152.390 C 163.749 150.981,163.905 152.265,163.905 130.928 L 163.905 112.461 164.493 111.281 C 165.195 109.873,166.362 108.851,167.761 108.421 C 169.188 107.982,224.967 107.904,226.421 108.338 M101.362 109.991 C 91.592 112.511,83.492 120.329,80.621 130.009 C 79.074 135.226,78.801 140.642,79.460 153.115 C 79.955 162.502,80.307 160.294,80.598 145.970 C 80.902 130.958,81.280 129.027,85.016 123.399 C 89.354 116.863,98.478 111.237,104.739 111.237 C 106.391 111.237,106.790 110.535,105.456 109.977 C 104.515 109.584,102.919 109.590,101.362 109.991 M190.919 110.128 C 176.160 110.375,173.011 110.796,180.263 111.554 C 184.017 111.946,196.705 112.444,198.775 112.281 C 199.537 112.221,203.010 112.108,206.493 112.030 C 212.313 111.899,219.066 111.407,219.605 111.073 C 220.752 110.364,205.938 109.876,190.919 110.128 M208.782 110.771 C 212.287 111.190,199.048 111.698,191.344 111.440 C 187.666 111.317,184.808 110.926,186.379 110.761 C 189.848 110.398,205.722 110.405,208.782 110.771 M107.037 113.651 C 95.412 115.383,87.361 122.964,85.195 134.219 C 84.515 137.749,84.582 174.668,85.273 177.753 C 86.976 185.347,92.510 192.164,98.865 194.496 C 99.240 194.633,100.108 194.958,100.795 195.218 C 115.455 200.757,131.836 192.611,135.917 177.753 C 136.548 175.454,136.538 136.297,135.906 133.712 C 133.427 123.578,126.349 116.466,116.345 114.057 C 114.798 113.684,108.623 113.415,107.037 113.651 M114.756 116.099 C 125.475 117.740,133.507 126.140,135.183 137.457 C 135.797 141.605,135.504 178.399,134.850 179.228 C 134.752 179.353,134.599 179.889,134.512 180.420 C 134.424 180.951,134.260 181.385,134.146 181.385 C 134.032 181.385,133.939 181.542,133.939 181.735 C 133.939 182.163,132.381 185.101,132.098 185.206 C 131.987 185.248,131.896 185.384,131.896 185.509 C 131.896 186.606,124.989 192.963,123.797 192.963 C 123.652 192.963,123.500 193.039,123.458 193.133 C 123.417 193.226,122.872 193.539,122.247 193.828 C 121.623 194.117,120.959 194.433,120.772 194.531 C 120.585 194.628,119.665 194.931,118.729 195.202 C 117.792 195.474,116.720 195.809,116.345 195.946 C 115.407 196.290,107.344 196.463,105.789 196.172 C 102.673 195.589,101.572 195.281,99.432 194.394 C 98.274 193.913,97.066 193.323,96.935 193.173 C 96.873 193.101,96.669 192.987,96.481 192.918 C 93.436 191.796,86.947 184.083,86.947 181.586 C 86.947 181.350,86.851 181.158,86.734 181.158 C 86.616 181.158,86.450 180.673,86.364 180.079 C 86.279 179.486,86.132 178.899,86.040 178.774 C 85.736 178.366,85.594 177.006,85.558 174.183 C 85.538 172.607,85.435 171.462,85.319 171.534 C 85.095 171.672,85.216 143.121,85.452 140.295 C 85.887 135.092,86.343 133.062,87.853 129.627 C 92.132 119.890,103.194 114.328,114.756 116.099 M228.476 135.318 C 228.077 135.762,228.042 136.112,228.097 139.129 C 228.278 148.976,226.979 151.447,221.967 150.788 C 219.859 150.511,210.362 150.776,209.181 151.145 C 205.122 152.413,207.541 153.908,213.661 153.913 C 215.369 153.915,217.547 154.025,218.502 154.157 C 219.894 154.351,220.647 154.329,222.304 154.044 C 225.034 153.575,225.684 153.595,226.941 154.186 L 227.997 154.682 228.357 154.156 C 228.555 153.867,229.048 153.319,229.452 152.939 C 230.420 152.029,230.512 151.375,230.199 147.638 C 229.707 141.786,229.671 140.489,229.945 138.625 C 230.361 135.792,229.598 134.074,228.476 135.318 M229.474 136.773 C 229.587 137.741,229.304 138.933,228.961 138.933 C 228.413 138.933,228.182 137.224,228.619 136.407 C 228.946 135.797,229.381 135.984,229.474 136.773 M85.464 156.981 C 85.464 164.847,85.493 168.032,85.528 164.059 C 85.563 160.085,85.562 153.649,85.528 149.757 C 85.493 145.864,85.464 149.115,85.464 156.981 M229.475 146.769 C 229.633 151.039,228.735 152.411,226.198 151.774 L 225.584 151.620 226.513 150.668 C 227.628 149.526,227.829 149.033,228.256 146.398 C 228.811 142.967,229.341 143.128,229.475 146.769 M222.660 151.676 C 222.949 151.784,223.485 151.873,223.851 151.873 C 224.218 151.873,224.518 151.956,224.518 152.058 C 224.518 152.584,220.767 153.652,220.020 153.339 C 219.809 153.251,217.624 153.114,215.164 153.036 C 212.055 152.938,210.606 152.808,210.408 152.611 C 209.746 151.948,210.602 151.763,215.005 151.617 C 217.377 151.538,219.386 151.405,219.469 151.322 C 219.647 151.144,221.906 151.394,222.660 151.676 M204.955 158.107 C 202.330 158.833,200.454 161.301,199.670 165.060 C 199.377 166.467,199.319 168.924,199.319 180.071 C 199.319 195.607,199.238 194.989,201.577 197.276 C 203.632 199.285,203.830 199.322,212.372 199.315 C 220.532 199.308,220.701 199.279,222.314 197.619 C 223.924 195.961,223.853 196.977,223.785 176.390 L 223.723 157.889 214.869 157.851 C 208.229 157.823,205.751 157.887,204.955 158.107 M219.622 161.530 C 221.794 162.613,221.765 162.368,221.781 179.682 C 221.796 196.542,221.682 197.786,220.046 198.662 C 219.054 199.193,204.951 199.118,203.796 198.575 C 203.043 198.222,201.303 196.658,200.529 195.640 C 199.577 194.388,199.093 170.794,199.926 166.250 C 200.291 164.255,202.442 162.104,204.654 161.519 C 207.307 160.818,218.210 160.825,219.622 161.530 M79.821 172.945 C 78.289 175.423,80.747 184.250,84.497 189.738 C 89.297 196.763,99.259 202.457,105.879 201.960 C 110.520 201.611,109.666 199.888,104.767 199.716 C 93.642 199.325,83.714 189.840,81.502 177.489 C 80.780 173.455,80.303 172.165,79.821 172.945 M81.036 178.036 C 83.900 190.476,92.990 199.109,104.490 200.309 C 107.902 200.664,108.090 201.461,104.749 201.404 C 99.262 201.310,91.368 197.224,86.954 192.194 C 83.083 187.781,79.492 179.443,80.218 176.551 C 80.447 175.636,80.509 175.748,81.036 178.036 M227.940 192.225 C 227.814 192.693,227.506 194.016,227.256 195.164 C 226.214 199.944,224.328 201.576,220.091 201.363 C 214.072 201.060,209.489 201.250,206.924 201.911 C 203.837 202.706,203.781 202.758,205.266 203.429 C 206.457 203.967,206.550 203.973,213.848 203.973 L 221.226 203.973 222.701 203.268 C 226.302 201.547,228.588 197.531,228.600 192.906 C 228.604 191.219,228.295 190.900,227.940 192.225 M219.279 202.118 C 222.846 203.061,217.713 203.757,211.197 203.215 C 209.245 203.052,208.827 202.887,209.261 202.452 C 209.871 201.843,217.301 201.595,219.279 202.118 M0.141 207.264 C 0.220 207.951,0.371 208.717,0.476 208.967 C 0.593 209.242,0.613 208.929,0.528 208.173 C 0.451 207.486,0.301 206.720,0.193 206.470 C 0.073 206.190,0.053 206.495,0.141 207.264 M399.560 208.433 C 399.422 209.075,399.353 209.645,399.407 209.698 C 399.523 209.814,399.680 209.285,399.877 208.116 C 400.091 206.845,399.848 207.088,399.560 208.433 M0.823 210.216 C 0.978 211.081,2.213 214.049,2.570 214.415 C 2.715 214.565,2.745 214.526,2.657 214.302 C 2.139 212.983,1.039 210.250,0.877 209.875 C 0.743 209.566,0.725 209.674,0.823 210.216 M398.910 210.829 C 398.574 211.923,398.737 212.086,399.092 211.010 C 399.242 210.556,399.320 210.141,399.266 210.087 C 399.212 210.033,399.052 210.367,398.910 210.829 M398.212 212.628 C 398.062 212.957,397.992 213.278,398.056 213.341 C 398.119 213.405,398.279 213.173,398.411 212.826 C 398.722 212.007,398.566 211.851,398.212 212.628 M397.511 214.060 C 397.223 214.597,397.210 214.824,397.475 214.659 C 397.676 214.536,397.988 213.621,397.830 213.621 C 397.784 213.621,397.640 213.818,397.511 214.060 M3.827 216.560 C 4.369 217.497,6.397 219.947,6.646 219.965 C 6.743 219.972,6.283 219.332,5.624 218.544 C 4.966 217.755,4.190 216.810,3.901 216.444 L 3.374 215.778 3.827 216.560 M396.141 216.312 C 396.141 216.419,395.762 217.007,395.300 217.618 C 394.837 218.229,394.642 218.581,394.865 218.401 C 395.461 217.920,396.656 216.118,396.379 216.118 C 396.248 216.118,396.141 216.206,396.141 216.312 M393.023 220.153 C 391.423 221.861,391.631 221.894,393.309 220.198 C 394.047 219.452,394.552 218.852,394.431 218.863 C 394.310 218.875,393.676 219.455,393.023 220.153 M7.834 221.169 C 9.103 222.294,10.747 223.508,11.635 223.974 C 12.615 224.489,12.364 224.169,11.294 223.539 C 10.763 223.227,9.589 222.349,8.685 221.588 C 6.818 220.017,6.182 219.704,7.834 221.169 M390.491 222.386 C 389.944 222.809,389.407 223.156,389.300 223.156 C 389.192 223.156,389.103 223.263,389.103 223.393 C 389.103 223.524,389.584 223.294,390.171 222.883 C 390.758 222.471,391.342 222.063,391.469 221.976 C 391.597 221.889,391.653 221.773,391.594 221.717 C 391.535 221.662,391.039 221.963,390.491 222.386 M387.690 224.155 C 386.669 224.762,386.345 225.057,386.954 224.826 C 387.528 224.609,388.876 223.819,388.876 223.701 C 388.876 223.524,388.527 223.658,387.690 224.155 M12.813 224.638 C 13.055 224.822,13.362 224.968,13.494 224.964 C 13.626 224.960,13.536 224.807,13.294 224.624 C 13.051 224.441,12.745 224.294,12.613 224.298 C 12.480 224.302,12.571 224.455,12.813 224.638 M13.973 225.173 C 14.091 225.284,14.444 225.441,14.756 225.523 L 15.323 225.672 14.756 225.330 C 14.123 224.949,13.626 224.849,13.973 225.173 M385.495 225.218 C 385.196 225.338,385.003 225.487,385.066 225.550 C 385.199 225.683,386.379 225.270,386.379 225.091 C 386.379 224.927,386.134 224.962,385.495 225.218 M16.005 225.992 C 16.771 226.353,17.637 226.471,17.026 226.130 C 16.839 226.026,16.379 225.880,16.005 225.806 L 15.323 225.671 16.005 225.992 M383.655 225.930 C 383.218 226.059,382.977 226.208,383.120 226.260 C 383.262 226.312,383.722 226.205,384.141 226.022 C 385.028 225.635,384.795 225.591,383.655 225.930 M17.821 226.535 C 18.492 226.823,20.393 227.080,19.977 226.826 C 19.790 226.711,19.126 226.555,18.502 226.478 C 17.787 226.391,17.535 226.412,17.821 226.535 M380.956 226.579 C 380.408 226.687,379.897 226.838,379.821 226.916 C 379.644 227.096,381.802 226.785,382.406 226.544 L 382.860 226.362 382.406 226.373 C 382.157 226.379,381.504 226.472,380.956 226.579 " stroke="none" fill="#82a8b9" fill-rule="evenodd"></path></g></svg>