<?xml version="1.0" encoding="iso-8859-1"?>
<!-- Generator: Adobe Illustrator 18.0.0, SVG Export Plug-In . SVG Version: 6.00 Build 0)  -->
<!DOCTYPE svg PUBLIC "-//W3C//DTD SVG 1.1//EN" "http://www.w3.org/Graphics/SVG/1.1/DTD/svg11.dtd">
<svg version="1.1" id="Capa_1" xmlns="http://www.w3.org/2000/svg" xmlns:xlink="http://www.w3.org/1999/xlink" x="0px" y="0px"
	 viewBox="0 0 60 60" style="enable-background:new 0 0 60 60;" xml:space="preserve">
<g>
	<path d="M59,56H4V1c0-0.553-0.447-1-1-1S2,0.447,2,1v55H1c-0.553,0-1,0.447-1,1s0.447,1,1,1h1v1c0,0.553,0.447,1,1,1s1-0.447,1-1
		v-1h55c0.553,0,1-0.447,1-1S59.553,56,59,56z"/>
	<path d="M7,29h2c0.553,0,1-0.447,1-1s-0.447-1-1-1H7c-0.553,0-1,0.447-1,1S6.447,29,7,29z"/>
	<path d="M7,25h2c0.553,0,1-0.447,1-1s-0.447-1-1-1H7c-0.553,0-1,0.447-1,1S6.447,25,7,25z"/>
	<path d="M7,21h2c0.553,0,1-0.447,1-1s-0.447-1-1-1H7c-0.553,0-1,0.447-1,1S6.447,21,7,21z"/>
	<path d="M7,17h2c0.553,0,1-0.447,1-1s-0.447-1-1-1H7c-0.553,0-1,0.447-1,1S6.447,17,7,17z"/>
	<path d="M7,13h2c0.553,0,1-0.447,1-1s-0.447-1-1-1H7c-0.553,0-1,0.447-1,1S6.447,13,7,13z"/>
	<path d="M7,9h2c0.553,0,1-0.447,1-1S9.553,7,9,7H7C6.447,7,6,7.447,6,8S6.447,9,7,9z"/>
	<path d="M7,5h2c0.553,0,1-0.447,1-1S9.553,3,9,3H7C6.447,3,6,3.447,6,4S6.447,5,7,5z"/>
	<path d="M11.013,48.987c3.309,0,6-2.691,6-6c0-1.549-0.595-2.958-1.562-4.024l3.526-3.526C20.042,36.405,21.451,37,23,37
		s2.958-0.595,4.024-1.562l4.538,4.538C30.595,41.042,30,42.451,30,44c0,3.309,2.691,6,6,6s6-2.691,6-6
		c0-1.035-0.263-2.009-0.726-2.86l8.703-8.703C51.042,33.405,52.451,34,54,34c3.309,0,6-2.691,6-6s-2.691-6-6-6s-6,2.691-6,6
		c0,1.035,0.263,2.009,0.726,2.86l-8.703,8.703C38.958,38.595,37.549,38,36,38c-1.035,0-2.009,0.263-2.86,0.726l-4.867-4.867
		C28.737,33.009,29,32.035,29,31c0-3.309-2.691-6-6-6s-6,2.691-6,6c0,1.035,0.263,2.009,0.726,2.86l-3.854,3.854
		c-0.851-0.463-1.825-0.726-2.86-0.726c-3.309,0-6,2.691-6,6S7.704,48.987,11.013,48.987z"/>
</g>
<g>
</g>
<g>
</g>
<g>
</g>
<g>
</g>
<g>
</g>
<g>
</g>
<g>
</g>
<g>
</g>
<g>
</g>
<g>
</g>
<g>
</g>
<g>
</g>
<g>
</g>
<g>
</g>
<g>
</g>
</svg>
