<?xml version="1.0" encoding="utf-8"?>
<!-- Generator: Adobe Illustrator 20.0.0, SVG Export Plug-In . SVG Version: 6.00 Build 0)  -->
<svg version="1.1" id="Ebene_1" xmlns="http://www.w3.org/2000/svg" xmlns:xlink="http://www.w3.org/1999/xlink" x="0px" y="0px"
	 viewBox="0 0 32 32" style="enable-background:new 0 0 32 32;" xml:space="preserve" width="32px" height="32px" class="br-symbol-library">
<g id="On">
	<path d="M23.2,5.3c-0.8-0.5-1.7-0.7-1.7,0.4v2.5c0,1,0.6,1.2,0.9,1.5c2.3,1.9,3.8,4.7,3.8,8c0,5.6-4.6,10.2-10.2,10.2
		S5.8,23.3,5.8,17.7c0-3.2,1.5-6.1,3.8-8c0.3-0.2,0.9-0.3,0.9-1.4V5.9c0-1.1-0.8-1.1-1.9-0.5c-4.2,2.5-7,7.1-7,12.3
		C1.7,25.6,8.1,32,16,32c7.9,0,14.3-6.4,14.3-14.3C30.3,12.4,27.5,7.8,23.2,5.3z M18.8,1.3c0-0.7-0.6-1.3-1.4-1.3h-2.6
		c-0.8,0-1.4,0.6-1.4,1.3v10.9c0,0.7,0.6,1.3,1.4,1.3h2.6c0.8,0,1.4-0.6,1.4-1.3V1.3z"/>
</g>
<g id="Ebene_1_1_">
</g>
</svg>
