<svg xmlns="http://www.w3.org/2000/svg" xmlns:xlink="http://www.w3.org/1999/xlink" version="1.1" style="enable-background:new 0 0 32 32;" xml:space="preserve" width="65" height="60"><rect id="backgroundrect" width="100%" height="100%" x="0" y="0" fill="none" stroke="none" class="" style=""/>


<g class="currentLayer" style=""><title>Layer 1</title><g id="On" class="selected" fill-opacity="1" fill="#2f6f8b">
	<path d="M45.04171143791464,11.36246187806529 c-1.397312092669154,-0.8680117228280446 -2.9692881969219513,-1.2152164119592612 -2.9692881969219513,0.6944093782624355 v4.340058614140219 c0,1.7360234456560883 1.0479840695018652,2.083228134787305 1.571976104252798,2.604035168484131 c4.0172722664238165,3.298444546746566 6.6372324401784795,8.159310194583611 6.6372324401784795,13.8881875652487 c0,9.72173129567409 -8.034544532847633,17.70743914569209 -17.815729181531708,17.70743914569209 S14.650173422360556,42.610883899874864 14.650173422360556,32.889152604200774 c0,-5.55527502609948 2.619960173754663,-10.589743018502134 6.6372324401784795,-13.8881875652487 c0.5239920347509324,-0.3472046891312185 1.571976104252798,-0.5208070336968269 1.571976104252798,-2.4304328239185224 V12.404075945458942 c0,-1.9096257902216967 -1.397312092669154,-1.9096257902216967 -3.31861622008924,-0.8680117228280446 c-7.335888486513056,4.340058614140219 -12.226480810855094,12.325766464158221 -12.226480810855094,21.353088381569876 C7.488948947431144,46.603737824883865 18.667445688784376,57.714287877082825 32.46590260389227,57.714287877082825 c13.798456915107892,0 24.97695365646112,-11.11055005219896 24.97695365646112,-24.82513527288205 C57.442856260353395,23.68822834222351 52.55226393601134,15.702520492205508 45.04171143791464,11.36246187806529 zM37.35649492823429,4.41836809544094 c0,-1.2152164119592612 -1.0479840695018652,-2.2568304793529137 -2.4452961621710188,-2.2568304793529137 h-4.541264301174749 c-1.397312092669154,0 -2.4452961621710188,1.0416140673936527 -2.4452961621710188,2.2568304793529137 v18.922655557651353 c0,1.2152164119592612 1.0479840695018652,2.2568304793529137 2.4452961621710188,2.2568304793529137 h4.541264301174749 c1.397312092669154,0 2.4452961621710188,-1.0416140673936527 2.4452961621710188,-2.2568304793529137 V4.41836809544094 z" id="svg_1" fill="#2f6f8b"/>
</g><g id="Ebene_1_1_">
</g></g></svg>