<svg id="svg" xmlns="http://www.w3.org/2000/svg" xmlns:xlink="http://www.w3.org/1999/xlink" width="400" height="127.60000000000001" viewBox="0, 0, 400,127.60000000000001" version="1.1"><g id="svgg"><path id="path0" d="M57.333 0.171 C 54.487 0.461,51.615 0.862,51.353 1.007 C 51.204 1.089,50.222 1.314,49.169 1.507 C 48.116 1.700,47.216 1.912,47.169 1.978 C 47.122 2.043,46.483 2.234,45.750 2.402 C 45.017 2.569,44.117 2.837,43.750 2.998 C 43.383 3.158,42.858 3.341,42.583 3.404 C 42.308 3.468,41.783 3.658,41.417 3.826 C 41.050 3.995,40.320 4.289,39.795 4.479 C 39.270 4.670,38.708 4.902,38.545 4.995 C 38.383 5.088,37.838 5.321,37.335 5.512 C 36.832 5.703,36.382 5.914,36.335 5.980 C 36.288 6.047,35.837 6.275,35.333 6.488 C 34.829 6.701,34.379 6.922,34.333 6.979 C 34.287 7.036,33.837 7.289,33.333 7.541 C 32.829 7.793,32.267 8.090,32.083 8.203 C 31.900 8.315,31.467 8.580,31.120 8.792 C 30.774 9.004,30.226 9.327,29.902 9.508 C 29.578 9.690,29.224 9.913,29.115 10.004 C 29.006 10.094,28.429 10.484,27.833 10.870 C 26.221 11.914,23.375 14.111,21.500 15.759 C 20.958 16.235,16.235 20.958,15.759 21.500 C 14.205 23.268,11.500 26.741,11.500 26.967 C 11.500 27.045,11.331 27.268,11.125 27.462 C 10.919 27.656,10.600 28.100,10.417 28.449 C 10.233 28.798,9.952 29.229,9.792 29.406 C 9.631 29.584,9.500 29.792,9.500 29.867 C 9.500 29.943,9.254 30.398,8.953 30.878 C 8.079 32.270,8.022 32.369,7.541 33.333 C 7.289 33.837,7.036 34.287,6.979 34.333 C 6.922 34.379,6.700 34.829,6.487 35.333 C 6.273 35.837,6.046 36.272,5.983 36.300 C 5.920 36.327,5.696 36.815,5.486 37.383 C 5.276 37.952,5.053 38.454,4.991 38.500 C 4.929 38.546,4.705 39.071,4.494 39.667 C 4.283 40.262,4.058 40.825,3.994 40.917 C 3.930 41.008,3.711 41.608,3.507 42.250 C 3.304 42.892,3.041 43.642,2.923 43.917 C 2.805 44.192,2.576 44.979,2.415 45.667 C 2.253 46.354,2.064 46.992,1.993 47.083 C 1.923 47.175,1.701 48.112,1.501 49.167 C 1.301 50.221,1.071 51.233,0.991 51.417 C 0.585 52.347,0.004 58.342,0.002 61.625 L 0.000 63.833 9.424 63.833 C 18.781 63.833,21.130 63.707,21.500 63.185 C 21.546 63.119,21.941 62.932,22.378 62.768 C 22.815 62.604,23.265 62.382,23.378 62.275 C 23.491 62.167,23.808 61.936,24.083 61.762 C 25.135 61.095,27.438 58.849,45.488 40.884 C 52.874 33.532,59.155 27.307,59.447 27.050 C 60.536 26.091,62.319 24.904,63.208 24.548 C 63.552 24.410,63.833 24.245,63.833 24.181 C 63.833 24.118,64.227 23.929,64.708 23.762 C 65.190 23.594,65.756 23.350,65.966 23.220 C 66.513 22.880,69.084 22.341,70.175 22.337 C 70.684 22.335,71.175 22.259,71.266 22.167 C 71.374 22.059,78.594 21.987,91.916 21.959 L 112.400 21.917 109.653 19.167 C 108.143 17.654,106.496 16.066,105.995 15.637 C 103.609 13.598,103.068 13.170,102.875 13.168 C 102.760 13.167,102.667 13.093,102.667 13.002 C 102.667 12.912,102.385 12.650,102.042 12.420 C 101.698 12.191,101.004 11.706,100.500 11.343 C 99.996 10.980,99.358 10.556,99.083 10.401 C 98.808 10.247,98.546 10.069,98.500 10.006 C 98.454 9.943,98.079 9.710,97.667 9.488 C 97.254 9.265,96.879 9.034,96.833 8.973 C 96.719 8.824,95.453 8.108,94.333 7.560 C 93.829 7.314,93.379 7.064,93.333 7.005 C 93.287 6.947,92.837 6.725,92.333 6.512 C 91.829 6.299,91.379 6.072,91.333 6.008 C 91.287 5.944,90.800 5.713,90.250 5.495 C 89.700 5.277,89.174 5.044,89.081 4.978 C 88.989 4.912,88.464 4.698,87.915 4.503 C 87.366 4.307,86.729 4.047,86.500 3.925 C 86.271 3.803,85.596 3.569,85.000 3.405 C 84.404 3.241,83.879 3.057,83.833 2.996 C 83.787 2.934,83.075 2.718,82.250 2.516 C 81.425 2.313,80.630 2.083,80.482 2.004 C 80.335 1.925,79.398 1.699,78.399 1.502 C 77.400 1.306,76.433 1.074,76.250 0.989 C 74.766 0.296,61.663 -0.270,57.333 0.171 M340.428 12.688 C 339.150 12.765,338.029 12.904,337.936 12.997 C 337.843 13.091,337.564 13.167,337.317 13.167 C 336.639 13.167,332.965 13.809,332.583 13.995 C 332.400 14.084,331.612 14.315,330.833 14.509 C 330.054 14.703,329.342 14.923,329.250 14.997 C 329.158 15.072,328.705 15.244,328.242 15.381 C 327.146 15.704,322.733 17.730,322.500 18.018 C 322.454 18.074,322.192 18.235,321.917 18.376 C 321.642 18.517,320.967 18.943,320.417 19.323 C 319.867 19.702,319.229 20.138,319.000 20.290 C 316.792 21.762,311.333 27.224,311.333 27.961 C 311.333 28.042,311.146 28.285,310.917 28.500 C 310.688 28.715,310.500 28.956,310.500 29.036 C 310.500 29.115,310.237 29.570,309.917 30.046 L 309.333 30.912 309.333 23.873 L 309.333 16.833 294.018 16.833 L 278.703 16.833 278.435 18.020 C 278.287 18.673,278.167 19.311,278.167 19.437 C 278.167 19.563,278.108 19.667,278.036 19.667 C 277.964 19.667,277.726 20.510,277.507 21.542 C 277.289 22.573,277.058 23.492,276.994 23.583 C 276.930 23.675,276.706 24.537,276.495 25.500 C 276.284 26.462,276.058 27.325,275.992 27.417 C 275.927 27.508,275.711 28.333,275.513 29.250 C 275.314 30.167,275.085 31.041,275.002 31.192 C 274.919 31.344,274.682 32.281,274.476 33.275 C 274.270 34.270,274.051 35.121,273.989 35.167 C 273.928 35.212,273.708 36.037,273.502 37.000 C 273.295 37.962,273.070 38.825,273.001 38.917 C 272.931 39.008,272.708 39.871,272.505 40.833 C 272.302 41.796,272.076 42.658,272.003 42.750 C 271.930 42.842,271.698 43.742,271.486 44.750 C 271.275 45.758,271.055 46.621,270.997 46.667 C 270.939 46.712,270.713 47.575,270.494 48.583 C 270.275 49.592,270.051 50.454,269.996 50.500 C 269.941 50.546,269.728 51.371,269.522 52.333 C 269.316 53.296,269.087 54.197,269.013 54.337 C 268.939 54.476,268.715 55.339,268.515 56.254 C 268.316 57.168,268.086 58.038,268.005 58.186 C 267.924 58.334,267.693 59.234,267.492 60.186 C 267.290 61.138,267.068 61.992,266.999 62.083 C 266.930 62.175,266.709 63.000,266.510 63.917 C 266.310 64.833,266.078 65.733,265.995 65.917 C 265.912 66.100,265.688 66.962,265.498 67.833 C 265.308 68.704,265.091 69.530,265.016 69.669 C 264.941 69.808,264.710 70.708,264.503 71.669 C 264.296 72.630,264.069 73.492,263.998 73.583 C 263.928 73.675,263.698 74.575,263.486 75.583 C 263.275 76.592,263.055 77.454,262.996 77.500 C 262.938 77.546,262.702 78.442,262.473 79.491 C 261.962 81.832,261.805 81.914,261.417 80.047 C 261.250 79.242,261.066 78.546,261.008 78.500 C 260.951 78.454,260.725 77.592,260.506 76.583 C 260.287 75.575,260.061 74.712,260.003 74.667 C 259.945 74.621,259.725 73.758,259.514 72.750 C 259.302 71.742,259.070 70.842,258.997 70.750 C 258.924 70.658,258.698 69.796,258.495 68.833 C 258.292 67.871,258.069 67.008,257.999 66.917 C 257.930 66.825,257.705 65.962,257.500 65.000 C 257.295 64.037,257.070 63.175,257.001 63.083 C 256.931 62.992,256.708 62.129,256.505 61.167 C 256.302 60.204,256.076 59.342,256.004 59.250 C 255.931 59.158,255.701 58.258,255.492 57.250 C 255.283 56.242,255.063 55.379,255.003 55.333 C 254.943 55.288,254.717 54.425,254.500 53.417 C 254.283 52.408,254.060 51.546,254.005 51.500 C 253.949 51.454,253.725 50.592,253.506 49.583 C 253.287 48.575,253.059 47.712,252.998 47.667 C 252.937 47.621,252.717 46.758,252.508 45.750 C 252.299 44.742,252.069 43.842,251.996 43.750 C 251.924 43.658,251.698 42.796,251.495 41.833 C 251.292 40.871,251.069 40.008,250.999 39.917 C 250.930 39.825,250.705 38.962,250.498 38.000 C 250.292 37.037,250.072 36.212,250.011 36.167 C 249.949 36.121,249.727 35.258,249.519 34.250 C 249.310 33.242,249.079 32.342,249.005 32.250 C 248.932 32.158,248.701 31.258,248.492 30.250 C 248.283 29.242,248.063 28.379,248.002 28.333 C 247.941 28.287,247.713 27.425,247.494 26.417 C 247.275 25.408,247.053 24.546,247.000 24.500 C 246.947 24.454,246.725 23.592,246.506 22.583 C 246.287 21.575,246.059 20.712,245.998 20.667 C 245.937 20.621,245.750 19.908,245.582 19.083 C 245.415 18.258,245.217 17.415,245.143 17.208 L 245.008 16.833 229.754 16.833 L 214.500 16.833 214.485 27.042 C 214.475 33.699,214.416 37.062,214.314 36.708 C 214.228 36.410,214.084 36.167,213.995 36.167 C 213.906 36.167,213.833 36.064,213.833 35.939 C 213.833 35.680,213.152 33.960,212.999 33.833 C 212.853 33.713,212.167 32.201,212.167 32.002 C 212.167 31.909,212.104 31.833,212.028 31.833 C 211.952 31.833,211.715 31.458,211.500 31.000 C 211.285 30.542,211.059 30.167,210.997 30.167 C 210.935 30.167,210.750 29.869,210.586 29.505 C 210.421 29.141,210.148 28.717,209.977 28.562 C 209.806 28.408,209.667 28.199,209.667 28.097 C 209.667 27.996,209.496 27.727,209.287 27.498 C 209.078 27.270,208.723 26.822,208.498 26.502 C 208.272 26.183,207.974 25.798,207.836 25.647 C 207.697 25.496,207.321 25.056,207.000 24.670 C 205.484 22.844,201.545 19.333,201.013 19.333 C 200.908 19.333,200.783 19.230,200.735 19.105 C 200.687 18.979,200.314 18.704,199.907 18.495 C 199.500 18.286,199.167 18.062,199.167 17.999 C 199.167 17.936,198.848 17.742,198.458 17.569 C 198.069 17.396,197.495 17.085,197.184 16.877 C 196.873 16.669,196.329 16.412,195.976 16.306 C 195.623 16.201,195.333 16.063,195.333 16.002 C 195.333 15.940,194.790 15.711,194.125 15.492 C 193.460 15.274,192.877 15.040,192.830 14.974 C 192.782 14.908,192.144 14.696,191.413 14.504 C 190.682 14.312,189.956 14.084,189.799 13.997 C 189.449 13.803,185.966 13.167,185.254 13.167 C 184.968 13.167,184.640 13.073,184.525 12.958 C 184.243 12.677,172.837 12.655,172.484 12.936 C 172.355 13.038,171.725 13.172,171.083 13.234 C 169.512 13.385,166.770 13.851,166.667 13.985 C 166.621 14.044,165.833 14.270,164.917 14.487 C 164.000 14.703,163.212 14.927,163.167 14.984 C 163.121 15.042,162.502 15.275,161.792 15.503 C 161.082 15.730,160.501 15.967,160.501 16.028 C 160.500 16.090,160.106 16.268,159.625 16.425 C 159.144 16.581,158.637 16.804,158.500 16.919 C 158.362 17.034,157.875 17.326,157.417 17.568 C 156.958 17.810,156.320 18.175,155.997 18.379 C 154.015 19.634,153.667 19.874,153.667 19.978 C 153.667 20.042,153.446 20.225,153.176 20.385 C 152.487 20.792,148.919 24.371,148.350 25.226 C 148.203 25.447,147.754 26.105,147.352 26.689 C 146.438 28.016,144.932 30.929,144.477 32.250 C 144.287 32.800,144.068 33.400,143.990 33.583 C 142.981 35.943,142.241 44.948,143.017 45.427 C 143.099 45.478,143.167 45.775,143.167 46.087 C 143.167 46.835,143.760 49.879,143.983 50.274 C 144.079 50.444,144.312 51.105,144.501 51.744 C 144.690 52.382,144.902 52.944,144.972 52.994 C 145.043 53.043,145.235 53.441,145.399 53.878 C 145.562 54.315,145.785 54.765,145.893 54.878 C 146.001 54.991,146.230 55.400,146.401 55.787 C 146.573 56.174,146.852 56.616,147.023 56.771 C 147.194 56.925,147.333 57.116,147.333 57.194 C 147.333 57.954,152.266 62.842,154.125 63.923 C 154.423 64.097,154.667 64.285,154.667 64.341 C 154.667 64.397,155.042 64.619,155.500 64.833 C 155.958 65.048,156.333 65.275,156.333 65.337 C 156.333 65.399,156.783 65.629,157.333 65.847 C 157.883 66.065,158.333 66.292,158.333 66.349 C 158.333 66.407,158.690 66.582,159.125 66.739 C 159.560 66.895,160.217 67.163,160.583 67.334 C 160.950 67.505,161.775 67.775,162.417 67.933 C 163.058 68.092,163.621 68.271,163.667 68.333 C 163.712 68.394,164.604 68.612,165.648 68.818 C 166.693 69.025,167.668 69.260,167.815 69.342 C 167.963 69.424,168.908 69.650,169.917 69.846 C 170.925 70.041,171.825 70.258,171.917 70.328 C 172.008 70.397,172.946 70.629,174.000 70.842 C 175.054 71.055,175.954 71.279,176.000 71.339 C 176.046 71.400,176.983 71.625,178.083 71.839 C 179.183 72.053,180.121 72.282,180.167 72.348 C 180.213 72.413,181.112 72.637,182.167 72.845 C 183.221 73.053,184.121 73.272,184.167 73.331 C 184.213 73.391,185.075 73.617,186.083 73.833 C 187.092 74.050,187.954 74.275,188.000 74.334 C 188.046 74.392,188.815 74.614,189.708 74.827 C 190.602 75.040,191.333 75.265,191.333 75.327 C 191.333 75.388,191.738 75.606,192.232 75.811 C 192.726 76.016,193.262 76.330,193.424 76.508 C 193.586 76.687,193.803 76.833,193.906 76.833 C 194.188 76.833,195.977 78.636,196.460 79.407 C 196.693 79.779,196.933 80.121,196.994 80.167 C 197.930 80.869,198.704 86.362,198.053 87.683 C 197.945 87.903,197.768 88.383,197.661 88.750 C 197.236 90.198,194.520 93.833,193.863 93.833 C 193.756 93.833,193.576 93.983,193.461 94.167 C 193.347 94.350,193.200 94.500,193.136 94.500 C 193.071 94.500,192.583 94.755,192.051 95.067 C 191.519 95.378,190.671 95.766,190.167 95.929 C 189.662 96.091,189.211 96.281,189.164 96.351 C 189.054 96.512,185.866 97.167,185.192 97.167 C 184.914 97.167,184.640 97.242,184.583 97.333 C 184.456 97.539,177.392 97.563,177.265 97.358 C 177.217 97.279,176.730 97.168,176.183 97.111 C 174.885 96.976,172.607 96.503,172.500 96.347 C 172.454 96.280,172.042 96.126,171.583 96.006 C 170.814 95.803,168.025 94.546,167.833 94.317 C 167.787 94.262,167.412 94.006,167.000 93.748 C 166.266 93.291,163.542 90.654,162.952 89.832 C 162.258 88.862,161.761 88.036,161.451 87.333 C 161.268 86.921,161.069 86.546,161.008 86.500 C 160.879 86.404,160.386 84.844,160.230 84.042 C 160.172 83.744,160.068 83.500,159.998 83.500 C 159.929 83.500,159.820 83.069,159.757 82.542 C 159.694 82.015,159.602 81.415,159.553 81.208 L 159.464 80.833 149.982 80.833 L 140.500 80.833 140.500 81.958 C 140.501 83.309,140.792 85.952,140.991 86.417 C 141.069 86.600,141.264 87.425,141.423 88.250 C 141.582 89.075,141.840 90.050,141.995 90.417 C 142.151 90.783,142.415 91.552,142.582 92.125 C 142.749 92.698,142.949 93.167,143.026 93.167 C 143.104 93.167,143.167 93.289,143.167 93.438 C 143.167 93.760,144.691 96.925,145.364 98.000 C 146.933 100.508,148.707 102.738,150.324 104.232 C 150.731 104.609,151.227 105.086,151.427 105.292 C 151.626 105.499,152.305 106.044,152.936 106.503 C 153.567 106.962,154.233 107.452,154.417 107.591 C 155.228 108.208,156.767 109.166,156.946 109.166 C 157.054 109.166,157.247 109.271,157.375 109.399 C 157.632 109.655,159.046 110.333,159.324 110.333 C 159.421 110.333,159.500 110.398,159.500 110.477 C 159.500 110.557,159.856 110.749,160.292 110.905 C 160.727 111.062,161.383 111.328,161.750 111.498 C 162.117 111.668,162.867 111.934,163.417 112.090 C 163.967 112.246,164.492 112.432,164.583 112.503 C 164.675 112.575,165.537 112.807,166.500 113.020 C 167.462 113.233,168.287 113.455,168.333 113.514 C 168.444 113.656,172.974 114.333,173.814 114.333 C 174.192 114.333,174.502 114.422,174.542 114.542 C 174.636 114.826,188.661 114.847,189.016 114.563 C 189.145 114.461,189.737 114.324,190.333 114.260 C 191.888 114.092,194.194 113.688,194.583 113.515 C 194.767 113.434,195.592 113.200,196.417 112.995 C 197.242 112.791,197.992 112.568,198.083 112.500 C 198.175 112.433,198.775 112.207,199.417 111.997 C 200.058 111.788,200.621 111.568,200.667 111.508 C 200.713 111.448,201.162 111.225,201.667 111.012 C 202.171 110.799,202.621 110.578,202.667 110.521 C 202.713 110.464,203.111 110.247,203.551 110.039 C 203.992 109.831,204.442 109.588,204.551 109.498 C 204.661 109.408,205.350 108.941,206.083 108.460 C 206.817 107.978,207.515 107.453,207.634 107.292 C 207.754 107.132,207.934 107.000,208.033 107.000 C 208.133 107.000,208.447 106.781,208.732 106.514 C 210.043 105.284,211.471 103.835,212.039 103.158 C 212.381 102.750,212.757 102.303,212.874 102.164 C 212.992 102.026,213.271 101.651,213.494 101.331 C 213.718 101.011,213.948 100.712,214.006 100.667 C 214.064 100.621,214.197 100.433,214.301 100.250 C 214.445 99.996,214.491 101.282,214.495 105.625 L 214.500 111.333 224.075 111.333 L 233.650 111.333 233.556 102.708 C 233.504 97.965,233.352 84.071,233.219 71.833 C 233.085 59.596,232.941 47.934,232.898 45.919 C 232.813 41.894,232.914 41.616,233.503 44.250 C 233.709 45.167,233.925 45.954,233.985 46.000 C 234.044 46.046,234.269 46.833,234.484 47.750 C 234.700 48.667,234.929 49.492,234.994 49.583 C 235.059 49.675,235.284 50.500,235.495 51.417 C 235.705 52.333,235.934 53.158,236.002 53.250 C 236.071 53.342,236.296 54.167,236.502 55.083 C 236.708 56.000,236.925 56.788,236.985 56.833 C 237.044 56.879,237.269 57.667,237.484 58.583 C 237.700 59.500,237.930 60.325,237.997 60.417 C 238.064 60.508,238.289 61.333,238.496 62.250 C 238.704 63.167,238.926 63.954,238.989 64.000 C 239.052 64.046,239.279 64.871,239.494 65.833 C 239.708 66.796,239.931 67.621,239.988 67.667 C 240.046 67.712,240.269 68.500,240.484 69.417 C 240.700 70.333,240.930 71.158,240.997 71.250 C 241.064 71.342,241.288 72.167,241.495 73.083 C 241.702 74.000,241.928 74.825,241.999 74.917 C 242.069 75.008,242.292 75.796,242.494 76.667 C 242.697 77.537,242.920 78.325,242.990 78.417 C 243.061 78.508,243.288 79.333,243.495 80.250 C 243.702 81.167,243.927 81.992,243.996 82.083 C 244.064 82.175,244.291 83.000,244.500 83.917 C 244.709 84.833,244.935 85.658,245.003 85.750 C 245.071 85.842,245.292 86.629,245.494 87.500 C 245.697 88.371,245.920 89.158,245.990 89.250 C 246.061 89.342,246.288 90.163,246.496 91.076 C 246.703 91.988,246.939 92.851,247.019 92.992 C 247.100 93.134,247.353 93.981,247.583 94.875 C 248.649 99.028,248.851 99.772,248.998 100.083 C 249.085 100.267,249.317 101.129,249.515 102.000 C 249.712 102.871,249.931 103.658,250.002 103.750 C 250.073 103.842,250.260 104.517,250.418 105.250 C 250.576 105.983,250.805 106.808,250.927 107.083 C 251.049 107.358,251.303 108.258,251.492 109.083 C 251.681 109.908,251.923 110.752,252.029 110.958 L 252.223 111.333 261.937 111.333 L 271.652 111.333 271.766 110.708 C 271.830 110.365,271.930 110.046,271.990 110.000 C 272.049 109.954,272.279 109.129,272.500 108.167 C 272.721 107.204,272.952 106.379,273.013 106.333 C 273.074 106.287,273.292 105.500,273.498 104.583 C 273.704 103.667,273.929 102.842,273.999 102.750 C 274.068 102.658,274.300 101.833,274.516 100.917 C 274.731 100.000,274.951 99.212,275.006 99.167 C 275.060 99.121,275.278 98.333,275.491 97.417 C 275.704 96.500,275.934 95.675,276.002 95.583 C 276.071 95.492,276.295 94.667,276.500 93.750 C 276.705 92.833,276.930 92.008,277.000 91.917 C 277.070 91.825,277.292 91.037,277.494 90.167 C 277.697 89.296,277.920 88.508,277.990 88.417 C 278.061 88.325,278.288 87.500,278.495 86.583 C 278.702 85.667,278.929 84.842,279.000 84.750 C 279.071 84.658,279.298 83.833,279.505 82.917 C 279.712 82.000,279.942 81.172,280.016 81.076 C 280.090 80.980,280.308 80.196,280.500 79.333 C 280.692 78.471,280.912 77.686,280.988 77.591 C 281.064 77.495,281.288 76.704,281.485 75.833 C 281.683 74.962,281.915 74.100,282.002 73.917 C 282.149 73.605,282.351 72.861,283.417 68.708 C 283.647 67.815,283.897 66.971,283.974 66.833 C 284.050 66.696,284.285 65.833,284.496 64.917 C 284.707 64.000,284.938 63.175,285.009 63.083 C 285.080 62.992,285.303 62.204,285.506 61.333 C 285.708 60.462,285.929 59.675,285.997 59.583 C 286.065 59.492,286.291 58.667,286.500 57.750 C 286.709 56.833,286.936 56.008,287.004 55.917 C 287.073 55.825,287.298 55.000,287.505 54.083 C 287.712 53.167,287.939 52.342,288.010 52.250 C 288.080 52.158,288.303 51.371,288.506 50.500 C 288.708 49.629,288.930 48.842,289.000 48.750 C 289.070 48.658,289.288 47.871,289.485 47.000 C 289.683 46.129,289.919 45.267,290.011 45.083 C 290.103 44.900,290.310 44.188,290.472 43.500 L 290.767 42.250 290.712 47.250 C 290.621 55.488,290.165 107.435,290.166 109.458 L 290.167 111.333 299.750 111.333 L 309.333 111.333 309.340 103.042 C 309.346 95.332,309.365 94.785,309.614 95.245 C 309.761 95.517,309.983 95.841,310.108 95.965 C 310.232 96.089,310.333 96.263,310.333 96.352 C 310.333 96.510,311.396 98.250,311.900 98.917 C 312.038 99.100,312.544 99.772,313.023 100.409 C 314.243 102.031,314.377 102.183,316.266 104.069 C 318.109 105.909,319.007 106.708,319.708 107.130 C 319.960 107.281,320.167 107.463,320.167 107.533 C 320.167 107.603,320.467 107.813,320.833 108.000 C 321.200 108.187,321.500 108.401,321.500 108.475 C 321.500 108.549,321.875 108.785,322.333 109.000 C 322.792 109.215,323.167 109.436,323.167 109.493 C 323.167 109.549,323.973 109.993,324.958 110.480 C 325.944 110.967,326.938 111.461,327.167 111.577 C 327.396 111.694,327.996 111.923,328.500 112.086 C 329.004 112.249,329.454 112.437,329.500 112.505 C 329.546 112.572,330.258 112.794,331.083 112.998 C 331.908 113.203,332.661 113.433,332.756 113.509 C 332.952 113.667,336.644 114.333,337.322 114.333 C 337.566 114.333,337.839 114.406,337.927 114.494 C 338.477 115.044,351.046 115.063,352.134 114.516 C 352.289 114.438,353.467 114.208,354.750 114.005 C 356.033 113.803,357.158 113.577,357.250 113.504 C 357.342 113.430,358.092 113.203,358.917 112.998 C 359.742 112.794,360.454 112.572,360.500 112.505 C 360.546 112.437,360.994 112.247,361.497 112.082 C 362.768 111.663,366.623 109.790,366.833 109.489 C 366.879 109.423,367.235 109.204,367.625 109.001 C 368.015 108.799,368.333 108.574,368.333 108.502 C 368.333 108.430,368.600 108.245,368.927 108.090 C 369.253 107.935,369.561 107.701,369.611 107.571 C 369.661 107.440,369.772 107.333,369.856 107.333 C 370.774 107.333,376.154 101.422,377.516 98.917 C 377.715 98.550,377.930 98.212,377.993 98.167 C 378.295 97.948,380.168 94.086,380.582 92.830 C 380.747 92.328,380.932 91.879,380.992 91.833 C 381.127 91.730,381.833 89.294,381.833 88.931 C 381.833 88.786,381.901 88.667,381.984 88.667 C 382.066 88.667,382.298 87.748,382.498 86.625 C 382.698 85.502,382.926 84.433,383.005 84.250 C 383.132 83.952,383.500 81.456,383.500 80.890 C 383.500 80.706,381.893 80.667,374.367 80.667 C 364.820 80.667,364.833 80.666,364.833 81.379 C 364.833 81.825,364.147 84.567,364.010 84.667 C 363.947 84.712,363.722 85.219,363.511 85.792 C 363.299 86.365,363.079 86.834,363.021 86.836 C 362.964 86.837,362.733 87.212,362.509 87.669 C 362.285 88.126,362.055 88.500,361.998 88.500 C 361.941 88.500,361.729 88.794,361.527 89.154 C 361.325 89.514,361.097 89.832,361.020 89.862 C 360.943 89.892,360.578 90.267,360.209 90.696 C 358.358 92.848,355.180 94.977,352.511 95.852 C 351.909 96.049,351.341 96.270,351.248 96.343 C 350.020 97.304,341.312 97.291,339.512 96.325 C 339.368 96.248,338.725 96.019,338.083 95.818 C 337.442 95.616,336.879 95.396,336.833 95.330 C 336.787 95.263,336.337 95.034,335.833 94.821 C 335.329 94.608,334.879 94.384,334.833 94.324 C 334.787 94.263,334.487 94.079,334.167 93.915 C 333.606 93.628,332.586 92.908,331.628 92.123 C 331.176 91.752,328.811 89.408,328.202 88.728 C 328.028 88.532,327.707 88.082,327.489 87.728 C 327.272 87.373,326.960 86.938,326.797 86.760 C 326.634 86.583,326.500 86.353,326.500 86.250 C 326.500 86.147,326.369 85.917,326.208 85.740 C 326.048 85.562,325.735 85.042,325.513 84.583 C 325.292 84.125,325.062 83.712,325.003 83.667 C 324.944 83.621,324.718 83.096,324.500 82.500 C 324.282 81.904,324.052 81.379,323.988 81.333 C 323.924 81.287,323.705 80.650,323.500 79.917 C 323.295 79.183,323.077 78.546,323.015 78.500 C 322.890 78.407,322.399 76.330,322.227 75.167 C 322.166 74.754,322.062 74.379,321.996 74.333 C 320.992 73.635,320.993 55.614,321.998 53.250 C 322.076 53.067,322.308 52.054,322.513 51.000 C 322.718 49.946,322.941 49.046,323.008 49.000 C 323.075 48.954,323.300 48.279,323.508 47.500 C 323.716 46.721,323.939 46.046,324.004 46.000 C 324.069 45.954,324.292 45.410,324.500 44.792 C 324.708 44.173,324.934 43.667,325.002 43.667 C 325.070 43.667,325.294 43.217,325.500 42.667 C 325.706 42.117,325.927 41.667,325.992 41.667 C 326.057 41.667,326.285 41.292,326.500 40.833 C 326.715 40.375,326.943 40.000,327.008 40.000 C 327.073 40.000,327.216 39.783,327.326 39.518 C 327.436 39.252,327.651 38.893,327.805 38.720 C 327.958 38.546,328.268 38.145,328.494 37.827 C 329.446 36.490,331.658 34.265,333.130 33.164 C 333.746 32.704,334.333 32.260,334.435 32.179 C 334.537 32.097,334.949 31.864,335.352 31.660 C 335.754 31.456,336.121 31.238,336.167 31.176 C 336.212 31.115,336.512 30.962,336.833 30.836 C 337.154 30.710,337.792 30.440,338.250 30.236 C 338.708 30.032,339.721 29.738,340.500 29.584 C 341.279 29.429,342.059 29.227,342.233 29.135 C 342.658 28.908,347.167 28.902,347.588 29.127 C 347.769 29.223,348.736 29.458,349.738 29.648 C 350.740 29.838,351.602 30.052,351.655 30.125 C 351.707 30.197,352.275 30.437,352.917 30.657 C 353.558 30.878,354.121 31.110,354.167 31.173 C 354.212 31.237,354.587 31.459,355.000 31.667 C 355.412 31.875,355.787 32.096,355.833 32.158 C 355.879 32.221,356.254 32.503,356.667 32.784 C 357.406 33.289,359.100 34.886,359.750 35.690 C 360.367 36.454,360.833 37.152,360.833 37.313 C 360.833 37.400,360.898 37.497,360.977 37.528 C 361.196 37.613,362.262 39.800,362.588 40.833 C 362.747 41.337,362.935 41.825,363.006 41.917 C 363.120 42.064,363.371 43.256,363.795 45.667 L 363.927 46.417 373.125 46.460 L 382.323 46.503 382.220 45.126 C 382.163 44.369,382.052 43.725,381.975 43.694 C 381.897 43.664,381.833 43.401,381.833 43.111 C 381.833 42.423,381.158 38.608,381.018 38.500 C 380.958 38.454,380.735 37.742,380.522 36.917 C 380.309 36.092,380.083 35.379,380.019 35.333 C 379.955 35.288,379.720 34.706,379.497 34.042 C 379.274 33.377,379.042 32.833,378.982 32.833 C 378.921 32.833,378.699 32.402,378.488 31.875 C 378.277 31.348,378.053 30.879,377.991 30.833 C 377.929 30.787,377.708 30.412,377.500 30.000 C 377.292 29.587,377.065 29.212,376.996 29.167 C 376.927 29.121,376.704 28.765,376.501 28.375 C 376.299 27.985,376.082 27.667,376.019 27.667 C 375.956 27.667,375.764 27.423,375.590 27.125 C 375.417 26.827,375.120 26.418,374.929 26.216 C 374.739 26.014,374.321 25.535,374.000 25.151 C 373.205 24.200,371.752 22.732,370.748 21.867 C 370.291 21.472,369.764 21.004,369.577 20.825 C 369.391 20.646,369.151 20.500,369.045 20.500 C 368.939 20.500,368.754 20.369,368.634 20.208 C 368.171 19.586,362.690 16.333,362.106 16.333 C 361.969 16.333,361.754 16.230,361.628 16.105 C 361.503 15.979,360.879 15.703,360.242 15.491 C 359.605 15.278,358.933 15.013,358.750 14.901 C 358.567 14.789,357.854 14.565,357.167 14.403 C 356.479 14.241,355.879 14.058,355.833 13.996 C 355.730 13.857,353.360 13.377,352.051 13.230 C 351.519 13.170,351.005 13.060,350.909 12.985 C 350.414 12.598,344.637 12.435,340.428 12.688 M84.500 27.444 C 83.359 27.555,82.002 27.852,81.546 28.090 C 81.292 28.223,80.971 28.332,80.833 28.333 C 80.581 28.334,77.655 29.783,77.500 29.983 C 77.454 30.042,77.192 30.232,76.917 30.403 C 75.813 31.093,74.507 32.366,57.184 49.640 C 41.911 64.870,40.191 66.492,38.875 66.905 C 38.669 66.970,38.500 67.086,38.500 67.164 C 38.500 67.242,37.994 67.473,37.375 67.678 C 36.756 67.882,36.211 68.108,36.164 68.180 C 36.035 68.375,32.815 69.000,31.942 69.000 C 31.526 69.000,31.140 69.075,31.083 69.167 C 31.016 69.276,25.657 69.333,15.551 69.333 L 0.121 69.333 0.237 70.792 C 0.391 72.741,0.811 75.670,0.995 76.083 C 1.077 76.267,1.303 77.240,1.498 78.246 C 1.693 79.252,1.909 80.114,1.978 80.163 C 2.047 80.211,2.199 80.686,2.316 81.218 L 2.528 82.186 17.222 82.122 C 32.358 82.055,33.888 81.985,34.333 81.336 C 34.379 81.269,34.779 81.055,35.222 80.860 C 35.968 80.533,36.287 80.318,37.550 79.295 C 39.014 78.108,68.757 48.594,70.083 47.012 C 70.542 46.465,71.029 45.977,71.167 45.927 C 71.304 45.878,71.631 45.638,71.893 45.395 C 72.493 44.838,73.805 43.833,73.932 43.833 C 73.984 43.833,74.415 43.582,74.888 43.276 C 75.362 42.969,75.994 42.623,76.292 42.506 C 76.590 42.389,76.834 42.246,76.834 42.188 C 76.834 42.130,77.415 41.897,78.126 41.669 C 78.836 41.442,79.454 41.210,79.500 41.156 C 79.937 40.633,81.567 40.589,102.542 40.540 C 126.092 40.484,123.875 40.623,123.156 39.244 C 122.966 38.880,122.655 38.171,122.464 37.667 C 122.273 37.162,122.063 36.712,121.996 36.667 C 121.930 36.621,121.701 36.171,121.488 35.667 C 121.275 35.162,121.050 34.712,120.988 34.667 C 120.926 34.621,120.707 34.190,120.500 33.708 C 120.294 33.227,120.068 32.833,119.998 32.833 C 119.927 32.833,119.753 32.543,119.612 32.189 C 119.470 31.834,119.255 31.440,119.135 31.314 C 119.015 31.187,118.733 30.746,118.508 30.333 C 118.284 29.921,118.039 29.508,117.964 29.417 C 117.890 29.325,117.551 28.819,117.212 28.292 L 116.595 27.333 100.839 27.360 C 92.174 27.375,84.821 27.412,84.500 27.444 M181.384 30.133 C 181.494 30.220,181.958 30.344,182.417 30.408 C 183.491 30.559,185.392 31.024,185.500 31.162 C 185.546 31.220,186.058 31.439,186.638 31.648 C 187.217 31.856,187.959 32.208,188.286 32.430 C 188.613 32.652,188.978 32.833,189.098 32.833 C 189.218 32.833,189.377 32.928,189.450 33.043 C 189.523 33.159,189.885 33.449,190.254 33.687 C 191.104 34.238,192.909 36.045,193.480 36.917 C 193.720 37.283,193.994 37.666,194.088 37.767 C 194.183 37.868,194.406 38.281,194.584 38.684 C 194.762 39.087,194.958 39.454,195.020 39.500 C 195.082 39.546,195.301 40.146,195.506 40.833 C 195.711 41.521,195.936 42.158,196.004 42.250 C 196.072 42.342,196.219 42.960,196.329 43.625 L 196.530 44.833 205.515 44.833 L 214.500 44.833 214.489 57.708 C 214.484 64.790,214.417 70.431,214.341 70.244 C 214.266 70.058,214.083 69.805,213.935 69.682 C 213.788 69.560,213.667 69.367,213.667 69.254 C 213.667 69.141,213.498 68.862,213.292 68.634 C 213.085 68.407,212.772 67.964,212.596 67.652 C 212.121 66.811,209.693 64.262,208.547 63.401 C 206.690 62.006,203.360 60.136,201.897 59.666 C 201.541 59.551,200.950 59.324,200.583 59.161 C 200.217 58.997,199.392 58.726,198.750 58.559 C 198.108 58.392,197.546 58.207,197.500 58.148 C 197.454 58.088,196.592 57.867,195.583 57.655 C 194.575 57.443,193.713 57.221,193.667 57.162 C 193.621 57.103,192.758 56.883,191.750 56.674 C 190.742 56.465,189.842 56.240,189.750 56.174 C 189.658 56.108,188.758 55.879,187.750 55.667 C 186.742 55.454,185.842 55.224,185.750 55.156 C 185.658 55.088,184.758 54.866,183.750 54.662 C 182.742 54.458,181.842 54.236,181.750 54.169 C 181.658 54.101,180.721 53.873,179.667 53.662 C 178.612 53.451,177.675 53.223,177.583 53.155 C 177.492 53.088,176.517 52.862,175.417 52.655 C 174.317 52.447,173.379 52.228,173.333 52.166 C 173.287 52.105,172.575 51.923,171.750 51.762 C 170.925 51.601,169.875 51.299,169.417 51.091 C 168.958 50.883,168.396 50.656,168.167 50.587 C 167.938 50.518,167.600 50.338,167.417 50.187 C 167.233 50.036,166.848 49.783,166.559 49.624 C 165.569 49.079,164.016 47.316,163.564 46.223 C 163.418 45.871,163.145 45.246,162.957 44.833 C 162.362 43.525,162.381 38.262,162.983 37.833 C 163.048 37.787,163.231 37.401,163.391 36.976 C 163.550 36.550,163.809 36.050,163.966 35.864 C 164.122 35.679,164.549 35.146,164.913 34.681 C 165.278 34.215,165.638 33.833,165.713 33.833 C 165.787 33.833,166.027 33.654,166.246 33.436 C 166.761 32.921,168.377 31.943,169.333 31.568 C 169.746 31.406,170.233 31.186,170.417 31.078 C 170.600 30.971,171.387 30.751,172.167 30.590 C 172.946 30.430,173.733 30.233,173.917 30.154 C 174.673 29.825,180.976 29.808,181.384 30.133 M97.083 45.831 C 96.138 46.004,93.167 47.003,93.167 47.147 C 93.167 47.213,92.786 47.405,92.320 47.572 C 91.854 47.739,91.434 47.979,91.385 48.105 C 91.337 48.231,91.204 48.333,91.089 48.333 C 90.703 48.333,89.002 49.734,86.868 51.811 C 83.934 54.665,57.425 81.108,56.491 82.111 C 55.589 83.081,53.963 84.343,52.966 84.848 C 52.572 85.048,52.212 85.265,52.167 85.331 C 52.121 85.397,51.633 85.615,51.083 85.816 C 50.533 86.017,49.858 86.283,49.583 86.408 C 47.972 87.138,47.044 87.167,25.314 87.167 C 10.904 87.167,4.653 87.220,4.577 87.344 C 4.425 87.589,4.634 88.610,4.890 88.870 C 5.005 88.987,5.274 89.552,5.487 90.125 C 5.700 90.698,5.925 91.167,5.987 91.167 C 6.050 91.167,6.237 91.545,6.403 92.008 C 6.570 92.470,6.791 92.939,6.895 93.049 C 6.999 93.160,7.266 93.644,7.487 94.125 C 7.709 94.606,7.952 95.000,8.028 95.000 C 8.104 95.000,8.168 95.094,8.169 95.208 C 8.170 95.323,8.526 95.984,8.960 96.678 C 9.395 97.371,9.975 98.299,10.250 98.739 C 10.525 99.180,10.832 99.626,10.932 99.732 C 11.032 99.837,11.205 100.093,11.316 100.300 L 11.517 100.677 28.717 100.630 C 41.971 100.594,45.993 100.536,46.250 100.378 C 46.433 100.265,47.015 100.054,47.542 99.908 C 48.069 99.762,48.595 99.555,48.711 99.447 C 48.828 99.338,49.184 99.106,49.503 98.930 C 49.822 98.755,50.332 98.417,50.637 98.180 C 51.384 97.599,66.293 82.698,72.917 75.912 C 75.850 72.907,79.188 69.497,80.333 68.333 C 81.479 67.170,82.951 65.663,83.604 64.984 C 84.257 64.305,85.044 63.539,85.354 63.281 C 86.445 62.372,87.919 61.337,88.125 61.335 C 88.240 61.334,88.333 61.270,88.333 61.192 C 88.333 61.061,91.483 59.500,91.748 59.500 C 91.813 59.500,92.103 59.390,92.391 59.255 C 94.157 58.429,93.969 58.438,111.400 58.377 L 127.716 58.319 127.605 56.634 C 127.476 54.662,127.211 52.723,127.006 52.250 C 126.926 52.067,126.693 51.017,126.487 49.917 C 126.281 48.817,126.063 47.879,126.001 47.833 C 125.940 47.788,125.792 47.281,125.672 46.708 L 125.454 45.667 111.602 45.688 C 103.984 45.699,97.450 45.763,97.083 45.831 M110.500 63.610 C 109.519 63.706,107.926 64.024,107.750 64.159 C 107.658 64.230,107.040 64.450,106.375 64.648 C 105.710 64.847,105.167 65.068,105.167 65.139 C 105.167 65.209,104.791 65.403,104.332 65.568 C 103.873 65.733,103.442 65.954,103.374 66.059 C 103.306 66.164,103.025 66.362,102.750 66.499 C 102.270 66.736,99.489 69.474,94.344 74.773 C 93.021 76.135,90.434 78.790,88.594 80.673 C 86.755 82.556,83.262 86.136,80.833 88.629 C 70.534 99.201,67.487 102.180,66.320 102.821 C 65.915 103.043,65.546 103.278,65.500 103.342 C 65.454 103.406,65.004 103.633,64.500 103.848 C 63.996 104.062,63.499 104.319,63.396 104.419 C 63.293 104.519,62.618 104.745,61.896 104.921 C 61.174 105.097,60.546 105.290,60.500 105.350 C 60.185 105.761,56.644 105.833,36.890 105.833 C 13.874 105.833,15.621 105.737,16.708 106.943 C 17.951 108.321,21.140 111.381,22.414 112.417 C 22.752 112.692,23.204 113.076,23.418 113.271 C 23.632 113.466,24.057 113.801,24.362 114.016 C 24.667 114.231,25.103 114.578,25.332 114.787 C 25.560 114.996,25.837 115.167,25.948 115.167 C 26.059 115.167,26.210 115.267,26.283 115.389 C 26.357 115.511,27.017 115.999,27.750 116.473 C 28.483 116.947,29.258 117.485,29.472 117.668 C 29.687 117.850,29.937 118.000,30.030 118.000 C 30.123 118.000,30.429 118.169,30.710 118.375 C 31.276 118.789,32.112 119.258,33.500 119.939 C 34.004 120.186,34.455 120.445,34.502 120.514 C 34.548 120.583,34.998 120.802,35.500 121.000 C 36.002 121.198,36.452 121.415,36.498 121.482 C 36.545 121.549,37.033 121.782,37.583 122.000 C 38.133 122.218,38.621 122.446,38.667 122.507 C 38.712 122.567,39.275 122.788,39.917 122.997 C 40.558 123.207,41.164 123.441,41.263 123.519 C 41.362 123.596,41.962 123.816,42.596 124.007 C 43.231 124.198,43.975 124.454,44.250 124.575 C 44.525 124.697,45.313 124.935,46.000 125.105 C 46.688 125.275,47.288 125.460,47.333 125.515 C 47.379 125.570,48.317 125.785,49.417 125.991 C 50.517 126.198,51.567 126.433,51.750 126.513 C 52.828 126.985,59.128 127.500,63.824 127.500 C 68.676 127.500,74.826 126.996,75.917 126.510 C 76.100 126.428,77.150 126.193,78.250 125.987 C 79.350 125.781,80.287 125.567,80.333 125.510 C 80.379 125.453,81.148 125.233,82.042 125.021 C 82.935 124.809,83.667 124.568,83.667 124.484 C 83.667 124.401,83.758 124.333,83.870 124.333 C 84.174 124.333,86.404 123.621,86.500 123.493 C 86.546 123.432,86.996 123.249,87.500 123.086 C 88.004 122.923,88.604 122.692,88.833 122.572 C 89.804 122.064,92.869 120.667,93.011 120.667 C 93.097 120.667,93.167 120.602,93.167 120.522 C 93.167 120.443,93.523 120.215,93.958 120.017 C 94.771 119.646,96.286 118.803,96.584 118.556 C 96.676 118.479,97.089 118.233,97.501 118.008 C 97.913 117.784,98.395 117.465,98.573 117.300 C 98.751 117.135,98.976 116.999,99.073 116.997 C 99.170 116.995,99.475 116.813,99.750 116.592 C 100.859 115.700,101.845 115.000,101.992 115.000 C 102.078 115.000,102.246 114.867,102.366 114.705 C 102.485 114.543,102.779 114.286,103.018 114.134 C 103.258 113.981,103.559 113.757,103.689 113.636 C 103.906 113.434,105.232 112.302,106.399 111.322 C 107.087 110.744,111.134 106.647,111.856 105.797 C 112.190 105.404,112.772 104.708,113.150 104.250 C 113.528 103.792,113.935 103.304,114.053 103.167 C 114.423 102.736,116.074 100.462,116.775 99.417 C 118.418 96.967,118.667 96.569,118.667 96.394 C 118.667 96.291,118.775 96.117,118.908 96.007 C 119.041 95.897,119.319 95.456,119.525 95.028 C 119.731 94.600,119.988 94.160,120.097 94.049 C 120.206 93.939,120.430 93.470,120.597 93.008 C 120.763 92.545,120.951 92.167,121.014 92.167 C 121.076 92.167,121.301 91.735,121.512 91.208 C 121.723 90.681,121.951 90.212,122.019 90.165 C 122.086 90.118,122.309 89.630,122.513 89.081 C 122.718 88.532,122.977 87.933,123.090 87.750 C 123.203 87.567,123.426 87.004,123.587 86.500 C 123.747 85.996,123.934 85.508,124.004 85.417 C 124.074 85.325,124.297 84.650,124.500 83.917 C 124.703 83.183,124.931 82.507,125.007 82.413 C 125.083 82.319,125.305 81.569,125.500 80.746 C 125.696 79.923,125.925 79.121,126.009 78.964 C 126.094 78.807,126.331 77.682,126.537 76.464 C 126.744 75.246,126.961 74.212,127.021 74.167 C 127.220 74.014,127.684 69.288,127.785 66.375 L 127.885 63.500 119.484 63.527 C 114.864 63.541,110.821 63.579,110.500 63.610 M390.000 97.102 C 389.771 97.145,389.433 97.247,389.250 97.328 C 389.067 97.410,388.530 97.598,388.058 97.746 C 387.586 97.895,387.030 98.162,386.824 98.341 C 386.618 98.520,386.394 98.667,386.326 98.667 C 386.259 98.667,385.802 99.065,385.310 99.553 C 383.313 101.534,382.641 102.995,382.535 105.588 C 382.465 107.327,382.700 109.333,382.975 109.333 C 383.041 109.333,383.188 109.652,383.303 110.042 C 383.418 110.432,383.678 110.967,383.881 111.231 C 384.668 112.256,385.723 113.333,385.939 113.333 C 386.064 113.333,386.167 113.403,386.167 113.487 C 386.167 113.572,386.597 113.875,387.122 114.159 C 391.522 116.542,397.453 114.871,399.593 110.647 C 400.207 109.436,400.217 103.057,399.608 101.749 C 399.237 100.951,397.213 98.667,396.878 98.667 C 396.790 98.667,396.549 98.520,396.343 98.341 C 396.136 98.162,395.581 97.896,395.109 97.749 C 394.636 97.602,394.107 97.404,393.933 97.307 C 393.596 97.121,390.700 96.970,390.000 97.102 M394.100 98.931 C 395.779 99.501,397.785 101.297,398.458 102.833 C 398.679 103.337,398.948 103.930,399.055 104.151 C 399.312 104.678,399.308 107.666,399.051 108.183 C 398.941 108.403,398.684 108.987,398.479 109.481 C 398.274 109.975,397.941 110.565,397.739 110.792 C 397.537 111.019,397.263 111.327,397.131 111.477 C 396.489 112.205,395.017 113.167,394.544 113.167 C 394.428 113.167,394.333 113.236,394.333 113.322 C 394.333 113.956,390.058 113.957,388.729 113.323 C 386.302 112.163,384.167 109.585,384.167 107.812 C 384.167 107.641,384.092 107.500,384.000 107.500 C 383.796 107.500,383.775 105.280,383.975 104.873 C 384.054 104.714,384.278 104.085,384.473 103.475 C 384.845 102.318,385.073 101.983,386.364 100.695 C 387.604 99.458,388.647 98.930,390.500 98.600 C 391.204 98.475,393.333 98.671,394.100 98.931 M388.500 105.911 L 388.500 111.852 389.292 111.801 L 390.083 111.750 390.129 109.292 L 390.176 106.833 391.136 106.833 L 392.097 106.833 392.548 107.708 C 392.796 108.190,393.220 108.958,393.490 109.417 C 393.760 109.875,394.174 110.606,394.410 111.042 C 394.831 111.818,396.500 112.308,396.500 111.656 C 396.500 111.443,396.165 110.784,395.997 110.667 C 395.932 110.621,395.709 110.251,395.503 109.844 C 395.297 109.437,395.024 109.000,394.897 108.874 C 394.770 108.747,394.666 108.554,394.666 108.446 C 394.666 108.338,394.445 107.917,394.175 107.511 L 393.685 106.772 394.423 106.261 C 396.116 105.088,396.176 101.563,394.517 100.721 C 394.187 100.554,393.863 100.342,393.798 100.250 C 393.731 100.156,392.557 100.059,391.090 100.027 L 388.500 99.970 388.500 105.911 M391.750 101.333 C 391.807 101.425,392.120 101.500,392.446 101.500 C 393.454 101.500,394.411 102.601,394.273 103.602 C 394.088 104.953,393.303 105.544,391.569 105.635 L 390.167 105.708 390.167 103.438 L 390.167 101.167 390.907 101.167 C 391.314 101.167,391.693 101.242,391.750 101.333 " stroke="none" fill="#82a8b9" fill-rule="evenodd"></path><path id="path1" d="" stroke="none" fill="#82a8b9" fill-rule="evenodd"></path></g></svg>